%TF.GenerationSoftware,Altium Limited,Altium Designer,25.8.1 (18)*%
G04 Layer_Color=65535*
%FSLAX45Y45*%
%MOMM*%
%TF.SameCoordinates,04256EBC-0505-4C21-A688-68EA0911807C*%
%TF.FilePolarity,Positive*%
%TF.FileFunction,Legend,Top*%
%TF.Part,Single*%
G01*
G75*
%TA.AperFunction,NonConductor*%
%ADD56C,0.25000*%
%ADD57C,0.20000*%
%ADD58C,0.15000*%
%ADD59C,0.60000*%
%ADD60C,0.10000*%
%ADD61C,0.15240*%
%ADD62C,0.25400*%
%ADD63C,0.12700*%
D56*
X10188300Y8336000D02*
G03*
X10188300Y8336000I-12500J0D01*
G01*
X7734100Y5457800D02*
G03*
X7734100Y5457800I-12500J0D01*
G01*
X9715300Y8580500D02*
G03*
X9715300Y8580500I-12500J0D01*
G01*
X5717800Y5824300D02*
G03*
X5717800Y5824300I-12500J0D01*
G01*
X6464100Y7117300D02*
G03*
X6464100Y7117300I-12500J0D01*
G01*
X6253000Y5496000D02*
G03*
X6253000Y5496000I-12500J0D01*
G01*
X10213800Y6964300D02*
G03*
X10213800Y6964300I-12500J0D01*
G01*
X8512600Y7328400D02*
G03*
X8512600Y7328400I-12500J0D01*
G01*
X5488400Y8057500D02*
G03*
X5488400Y8057500I-12500J0D01*
G01*
X5670600Y7753300D02*
G03*
X5670600Y7753300I-12500J0D01*
G01*
X7684900Y7810500D02*
G03*
X7684900Y7810500I-12500J0D01*
G01*
X8661200Y7620600D02*
G03*
X8661200Y7620600I-12500J0D01*
G01*
X9224800Y5483300D02*
G03*
X9224800Y5483300I-12500J0D01*
G01*
X10213700Y5580100D02*
G03*
X10213700Y5580100I-12500J0D01*
G01*
D57*
X8559800Y9105900D02*
G03*
X8559800Y9105900I-127000J0D01*
G01*
X9728200Y9131300D02*
G03*
X9728200Y9131300I-127000J0D01*
G01*
X11290800Y8036000D02*
Y9236000D01*
X10400800Y8036000D02*
X10593300D01*
X11048300D02*
X11290800D01*
X10400800Y9023500D02*
Y9236000D01*
Y8823500D02*
Y8848500D01*
Y8623500D02*
Y8648500D01*
Y8423500D02*
Y8448500D01*
Y8036000D02*
Y8248500D01*
Y9236000D02*
X10593300D01*
X11048300D02*
X11290800D01*
X8185100Y8851900D02*
Y9105900D01*
X6877100Y8851900D02*
X8185100D01*
X6877100D02*
Y9105900D01*
X8185100D01*
X8621600Y4342800D02*
Y4585300D01*
Y5040300D02*
Y5232800D01*
X7421600D02*
X7634100D01*
X7809100D02*
X7834100D01*
X8009100D02*
X8034100D01*
X8209100D02*
X8234100D01*
X8409100D02*
X8621600D01*
X7421600Y4342800D02*
Y4585300D01*
Y5040300D02*
Y5232800D01*
Y4342800D02*
X8621600D01*
X9747800Y8758000D02*
Y8768000D01*
X9657800Y8758000D02*
Y8768000D01*
X6104800Y8335100D02*
Y8505100D01*
X5934800Y8335100D02*
Y8505100D01*
X5850800Y8335100D02*
Y8505100D01*
X5680800Y8335100D02*
Y8505100D01*
X4842600Y8170000D02*
X5012600D01*
X4842600Y8340000D02*
X5012600D01*
X7023700Y7080600D02*
X7733700D01*
X4722800Y5234300D02*
Y5504300D01*
X5792800D01*
Y5234300D02*
Y5504300D01*
X6649100Y7010300D02*
X6762600D01*
X6140600D02*
X6254100D01*
X6140600Y6299300D02*
Y7010300D01*
X6649100Y6299300D02*
X6762600D01*
X6140600D02*
X6254100D01*
X6762600D02*
Y7010300D01*
X7140500Y4381000D02*
Y4623500D01*
Y5078500D02*
Y5271000D01*
X5940500D02*
X6153000D01*
X6328000D02*
X6353000D01*
X6528000D02*
X6553000D01*
X6728000D02*
X6753000D01*
X6928000D02*
X7140500D01*
X5940500Y4381000D02*
Y4623500D01*
Y5078500D02*
Y5271000D01*
Y4381000D02*
X7140500D01*
X11073800Y7864300D02*
X11316300D01*
X10426300D02*
X10618800D01*
X10426300Y6664300D02*
Y6876800D01*
Y7051800D02*
Y7076800D01*
Y7251800D02*
Y7276800D01*
Y7451800D02*
Y7476800D01*
Y7651800D02*
Y7864300D01*
X11073800Y6664300D02*
X11316300D01*
X10426300D02*
X10618800D01*
X11316300D02*
Y7864300D01*
X7991000Y7285900D02*
X8161000D01*
X7991000Y7115900D02*
X8161000D01*
X7977290Y6847100D02*
X8227910D01*
X7977290Y7072100D02*
X8227910D01*
X6600100Y8335100D02*
Y8505100D01*
X6430100Y8335100D02*
Y8505100D01*
X6176100Y8335100D02*
Y8505100D01*
X6346100Y8335100D02*
Y8505100D01*
X8630100Y6458400D02*
Y7308400D01*
X9480100Y6458400D02*
Y7308400D01*
X8630100D02*
X9480100D01*
X8630100Y6458400D02*
X9480100D01*
X6600100Y7433400D02*
Y7603400D01*
X6430100Y7433400D02*
Y7603400D01*
X9414600Y8340723D02*
Y8541936D01*
X9584600Y8340723D02*
Y8541936D01*
X5145900Y7867500D02*
X5225900D01*
X5145900D02*
Y7967500D01*
X5365900Y7867500D02*
X5445900D01*
Y7967500D01*
X9743600Y8098700D02*
X9913600D01*
X9743600Y7928700D02*
X9913600D01*
X5947500Y5769700D02*
Y5939700D01*
X6117500Y5769700D02*
Y5939700D01*
X4855300Y7827100D02*
Y7997100D01*
X5025300Y7827100D02*
Y7997100D01*
X6417400Y7800500D02*
Y7970500D01*
X6587400Y7800500D02*
Y7970500D01*
X6320700Y7801700D02*
Y7971700D01*
X6150700Y7801700D02*
Y7971700D01*
X5603100Y7953300D02*
X5903100D01*
Y8023300D01*
X5603100D02*
X5903100D01*
X5603100Y7953300D02*
Y8023300D01*
X5198200Y8195400D02*
X5368200D01*
X5198200Y8365400D02*
X5368200D01*
X9420693Y8234900D02*
X9463000D01*
Y7944900D02*
Y8023501D01*
Y8156299D02*
Y8234900D01*
X9420693Y7944900D02*
X9463000D01*
X9333000Y8061299D02*
Y8118501D01*
X7526418Y5687893D02*
X7807631D01*
X7526418Y5869107D02*
X7807631D01*
X7544900Y7928000D02*
Y8150500D01*
Y7470500D02*
Y7693000D01*
X6984900Y7470500D02*
X7544900D01*
X6984900Y8150500D02*
X7544900D01*
X6864900Y7590500D02*
X6984900Y7470500D01*
X6864900Y8030500D02*
X6984900Y8150500D01*
X6864900Y7590500D02*
Y7690500D01*
Y7930500D02*
Y8030500D01*
X8424000Y8395693D02*
Y8596907D01*
X8594000Y8395693D02*
Y8596907D01*
X8488700Y7725600D02*
Y8225600D01*
X8808700Y7725600D02*
Y8225600D01*
X8346769Y5869107D02*
X8627982D01*
X8346769Y5687893D02*
X8627982D01*
X8912300Y4368300D02*
X10112300D01*
X8912300Y5065800D02*
Y5258300D01*
Y4368300D02*
Y4610800D01*
X9899800Y5258300D02*
X10112300D01*
X9699800D02*
X9724800D01*
X9499800D02*
X9524800D01*
X9299800D02*
X9324800D01*
X8912300D02*
X9124800D01*
X10112300Y5065800D02*
Y5258300D01*
Y4368300D02*
Y4610800D01*
X11316200Y5280100D02*
Y6480100D01*
X10426200Y5280100D02*
X10618700D01*
X11073700D02*
X11316200D01*
X10426200Y6267600D02*
Y6480100D01*
Y6067600D02*
Y6092600D01*
Y5867600D02*
Y5892600D01*
Y5667600D02*
Y5692600D01*
Y5280100D02*
Y5492600D01*
Y6480100D02*
X10618700D01*
X11073700D02*
X11316200D01*
X9996607Y8558893D02*
Y8840107D01*
X9815393Y8558893D02*
Y8840107D01*
X7872889Y7657890D02*
Y7988510D01*
X8103711Y7657890D02*
Y7988510D01*
X9504764Y7687400D02*
X9705977D01*
X9504764Y7857400D02*
X9705977D01*
X8220800Y7824193D02*
Y8025407D01*
X8390800Y7824193D02*
Y8025407D01*
X8639900Y8395693D02*
Y8596907D01*
X8809900Y8395693D02*
Y8596907D01*
X9465400Y6219100D02*
X9635400D01*
X9465400Y6049100D02*
X9635400D01*
X10005893Y7593693D02*
Y7874907D01*
X10187107Y7593693D02*
Y7874907D01*
X10199807Y6361793D02*
Y6643007D01*
X10018593Y6361793D02*
Y6643007D01*
X8889093Y5894507D02*
X9170307D01*
X8889093Y5713293D02*
X9170307D01*
D58*
X7903700Y6705600D02*
G03*
X7903700Y6705600I-525000J0D01*
G01*
D59*
X8760100Y7208400D02*
G03*
X8760100Y7208400I-30000J0D01*
G01*
D60*
X7111700Y5740400D02*
G03*
X7101700Y5740400I-5000J0D01*
G01*
D02*
G03*
X7111700Y5740400I5000J0D01*
G01*
X9867600Y8305800D02*
G03*
X9857600Y8305800I-5000J0D01*
G01*
D02*
G03*
X9867600Y8305800I5000J0D01*
G01*
X9405200Y5753100D02*
G03*
X9395200Y5753100I-5000J0D01*
G01*
D02*
G03*
X9405200Y5753100I5000J0D01*
G01*
X7942400Y5791200D02*
G03*
X7932400Y5791200I-5000J0D01*
G01*
D02*
G03*
X7942400Y5791200I5000J0D01*
G01*
X10058400Y6885800D02*
G03*
X10058400Y6895800I0J5000D01*
G01*
D02*
G03*
X10058400Y6885800I0J-5000D01*
G01*
X10096500Y5666600D02*
G03*
X10096500Y5676600I0J5000D01*
G01*
D02*
G03*
X10096500Y5666600I0J-5000D01*
G01*
X5699400Y7495700D02*
X5979400D01*
X5984400Y6245700D01*
X5679400D02*
X5984400D01*
X4734400Y7495700D02*
X5039400Y7490700D01*
X4734400Y6245700D02*
Y7495700D01*
Y6245700D02*
X5059400D01*
D61*
X9376410Y8580120D02*
Y8996680D01*
X8860790Y8580120D02*
Y8996680D01*
D62*
X6724693Y5759436D02*
Y5683260D01*
X6762781D01*
X6775477Y5695956D01*
Y5746740D01*
X6762781Y5759436D01*
X6724693D01*
X6800869Y5683260D02*
X6826260D01*
X6813564D01*
Y5759436D01*
X6800869Y5746740D01*
X6864348Y5670564D02*
X6915131D01*
X6991307Y5759436D02*
X6940523D01*
Y5721348D01*
X6965915Y5734044D01*
X6978611D01*
X6991307Y5721348D01*
Y5695956D01*
X6978611Y5683260D01*
X6953219D01*
X6940523Y5695956D01*
X6534164Y7302492D02*
X6521469Y7315188D01*
X6496077D01*
X6483381Y7302492D01*
Y7251708D01*
X6496077Y7239012D01*
X6521469D01*
X6534164Y7251708D01*
X6559556Y7239012D02*
X6584948D01*
X6572252D01*
Y7315188D01*
X6559556Y7302492D01*
X6673819Y7239012D02*
X6623036D01*
X6673819Y7289796D01*
Y7302492D01*
X6661124Y7315188D01*
X6635732D01*
X6623036Y7302492D01*
X7822016Y5542391D02*
X7821378Y5618564D01*
X7859464Y5618883D01*
X7872266Y5606294D01*
X7872479Y5580903D01*
X7859890Y5568101D01*
X7821803Y5567782D01*
X7847194Y5567995D02*
X7872798Y5542817D01*
X7897657Y5606507D02*
X7910246Y5619309D01*
X7935637Y5619521D01*
X7948439Y5606932D01*
X7948545Y5594237D01*
X7935956Y5581435D01*
X7948758Y5568846D01*
X7948864Y5556151D01*
X7936275Y5543349D01*
X7910884Y5543136D01*
X7898083Y5555725D01*
X7897976Y5568420D01*
X7910565Y5581223D01*
X7897763Y5593811D01*
X7897657Y5606507D01*
X7910565Y5581223D02*
X7935956Y5581435D01*
X7974468Y5530972D02*
X8025250Y5531398D01*
X8100677Y5620904D02*
X8049896Y5620479D01*
X8050215Y5582393D01*
X8075500Y5595301D01*
X8088195Y5595407D01*
X8100997Y5582818D01*
X8101210Y5557427D01*
X8088621Y5544625D01*
X8063230Y5544413D01*
X8050428Y5557002D01*
X7575225Y7339988D02*
X7562359Y7352511D01*
X7536969Y7352168D01*
X7524446Y7339301D01*
X7525133Y7288522D01*
X7538000Y7275999D01*
X7563389Y7276343D01*
X7575912Y7289209D01*
X7601473Y7276858D02*
X7626863Y7277202D01*
X7614168Y7277030D01*
X7613137Y7353198D01*
X7600614Y7340332D01*
X7664088Y7341191D02*
X7676611Y7354057D01*
X7702001Y7354401D01*
X7714867Y7341878D01*
X7715039Y7329183D01*
X7702516Y7316317D01*
X7689821Y7316145D01*
X7702516Y7316317D01*
X7715382Y7303794D01*
X7715554Y7291099D01*
X7703031Y7278232D01*
X7677642Y7277889D01*
X7664775Y7290412D01*
X5778521Y7746988D02*
Y7683508D01*
X5791217Y7670812D01*
X5816608D01*
X5829304Y7683508D01*
Y7746988D01*
X5854696Y7734292D02*
X5867392Y7746988D01*
X5892784D01*
X5905479Y7734292D01*
Y7721596D01*
X5892784Y7708900D01*
X5880088D01*
X5892784D01*
X5905479Y7696204D01*
Y7683508D01*
X5892784Y7670812D01*
X5867392D01*
X5854696Y7683508D01*
X5765788Y4470379D02*
X5702308D01*
X5689612Y4457683D01*
Y4432292D01*
X5702308Y4419596D01*
X5765788D01*
X5689612Y4343421D02*
Y4394204D01*
X5740396Y4343421D01*
X5753092D01*
X5765788Y4356116D01*
Y4381508D01*
X5753092Y4394204D01*
X6160035Y6173032D02*
X6159017Y6096864D01*
X6197102Y6096355D01*
X6209966Y6108880D01*
X6210644Y6159659D01*
X6198119Y6172523D01*
X6160035Y6173032D01*
X6236034Y6159320D02*
X6248898Y6171845D01*
X6274288Y6171506D01*
X6286813Y6158642D01*
X6286643Y6145947D01*
X6273779Y6133422D01*
X6261084Y6133591D01*
X6273779Y6133422D01*
X6286304Y6120557D01*
X6286134Y6107863D01*
X6273270Y6095338D01*
X6247881Y6095677D01*
X6235356Y6108541D01*
X4647796Y8050934D02*
X4634889Y8063414D01*
X4609501Y8062987D01*
X4597020Y8050080D01*
X4597874Y7999303D01*
X4610782Y7986823D01*
X4636171Y7987250D01*
X4648651Y8000157D01*
X4725029Y7988745D02*
X4674253Y7987891D01*
X4724175Y8039521D01*
X4723961Y8052215D01*
X4711054Y8064696D01*
X4685665Y8064269D01*
X4673185Y8051361D01*
X4749349Y8052643D02*
X4761830Y8065550D01*
X4787218Y8065978D01*
X4800126Y8053497D01*
X4800980Y8002721D01*
X4788500Y7989813D01*
X4763111Y7989386D01*
X4750204Y8001866D01*
X4749349Y8052643D01*
X6838964Y8331192D02*
X6826269Y8343888D01*
X6800877D01*
X6788181Y8331192D01*
Y8280408D01*
X6800877Y8267712D01*
X6826269D01*
X6838964Y8280408D01*
X6864356Y8267712D02*
X6889748D01*
X6877052D01*
Y8343888D01*
X6864356Y8331192D01*
X6978619Y8343888D02*
X6927836D01*
Y8305800D01*
X6953228Y8318496D01*
X6965924D01*
X6978619Y8305800D01*
Y8280408D01*
X6965924Y8267712D01*
X6940532D01*
X6927836Y8280408D01*
X8216917Y6311888D02*
Y6248408D01*
X8229612Y6235712D01*
X8255004D01*
X8267700Y6248408D01*
Y6311888D01*
X8293092Y6235712D02*
X8318484D01*
X8305788D01*
Y6311888D01*
X8293092Y6299192D01*
X7429537Y6038840D02*
X7416841Y6051536D01*
X7391450D01*
X7378754Y6038840D01*
Y5988056D01*
X7391450Y5975360D01*
X7416841D01*
X7429537Y5988056D01*
X7454929Y5975360D02*
X7480321D01*
X7467625D01*
Y6051536D01*
X7454929Y6038840D01*
X7518408Y5975360D02*
X7543800D01*
X7531104D01*
Y6051536D01*
X7518408Y6038840D01*
X7581888Y5962664D02*
X7632671D01*
X7708847Y6051536D02*
X7658063D01*
Y6013448D01*
X7683455Y6026144D01*
X7696151D01*
X7708847Y6013448D01*
Y5988056D01*
X7696151Y5975360D01*
X7670759D01*
X7658063Y5988056D01*
D63*
X4711311Y8261551D02*
X4723898Y8274355D01*
X4723681Y8299746D01*
X4710877Y8312333D01*
X4660096Y8311899D01*
X4647509Y8299095D01*
X4647726Y8273704D01*
X4660530Y8261117D01*
X4648051Y8235618D02*
X4648268Y8210227D01*
X4648160Y8222922D01*
X4724332Y8223573D01*
X4711528Y8236160D01*
X4712071Y8172683D02*
X4724874Y8160096D01*
X4725092Y8134705D01*
X4712505Y8121901D01*
X4699809Y8121793D01*
X4687005Y8134379D01*
X4674418Y8121576D01*
X4661723Y8121467D01*
X4648919Y8134054D01*
X4648702Y8159445D01*
X4661289Y8172249D01*
X4673985Y8172357D01*
X4686788Y8159770D01*
X4699375Y8172574D01*
X4712071Y8172683D01*
X4686788Y8159770D02*
X4687005Y8134379D01*
%TF.MD5,1f4327f2d4699fbdd7ada748d63b5db2*%
M02*
