%TF.GenerationSoftware,Altium Limited,Altium Designer,25.8.1 (18)*%
G04 Layer_Physical_Order=3*
G04 Layer_Color=16440176*
%FSLAX45Y45*%
%MOMM*%
%TF.SameCoordinates,04256EBC-0505-4C21-A688-68EA0911807C*%
%TF.FilePolarity,Positive*%
%TF.FileFunction,Copper,L3,Inr,Signal*%
%TF.Part,Single*%
G01*
G75*
%TA.AperFunction,ViaPad*%
%ADD49C,5.99440*%
%TA.AperFunction,ComponentPad*%
%ADD50C,1.55000*%
%ADD51R,1.30000X1.30000*%
%ADD52R,1.55000X1.55000*%
%ADD53C,1.50000*%
%ADD54C,1.30000*%
%TA.AperFunction,ViaPad*%
%ADD55C,0.45720*%
G36*
X9865034Y8849441D02*
X9858525Y6235700D01*
X8887821D01*
X7800224Y7526073D01*
X7772400Y8458200D01*
X5651337D01*
X5645620Y8470382D01*
X5643550Y8483600D01*
X5654313Y8494363D01*
X5660376Y8509000D01*
X5566424D01*
X5572487Y8494363D01*
X5583250Y8483600D01*
X5581180Y8470382D01*
X5575463Y8458200D01*
X5515281D01*
X5497927Y8477854D01*
X5501037Y8493487D01*
X5514613Y8507063D01*
X5520676Y8521700D01*
X5473700D01*
Y8534400D01*
X5461000D01*
Y8581376D01*
X5446363Y8575313D01*
X5438487Y8567437D01*
X5415225Y8563606D01*
X5394679Y8581929D01*
Y8818262D01*
X5400040Y8852112D01*
Y8867424D01*
X9847096D01*
X9865034Y8849441D01*
D02*
G37*
G36*
X10693400Y5676900D02*
X10632275Y5615775D01*
X10631837Y5616213D01*
X10617200Y5622276D01*
Y5575300D01*
X10604500D01*
Y5562600D01*
X10557524D01*
X10563587Y5547963D01*
X10564025Y5547525D01*
X9918700Y4902200D01*
X5575300D01*
X5130800Y5346700D01*
Y8407400D01*
X6565900D01*
Y5346700D01*
X9842500D01*
X10287000Y5791200D01*
Y8432800D01*
X10693400D01*
X10693400Y5676900D01*
D02*
G37*
G36*
X11410762Y5602279D02*
X10084801Y4317814D01*
X4889500D01*
X4597400Y4669930D01*
Y8115300D01*
X4991100D01*
Y5029200D01*
X5219700Y4800600D01*
X7273006D01*
X7279982Y4797710D01*
X7297160D01*
X7304136Y4800600D01*
X9944100D01*
X10783163Y5639662D01*
X10776108Y8643418D01*
X10794047Y8661400D01*
X11410762D01*
Y5602279D01*
D02*
G37*
%LPC*%
G36*
X9555794Y8797390D02*
Y8763114D01*
X9590070D01*
X9584007Y8777751D01*
X9570431Y8791327D01*
X9555794Y8797390D01*
D02*
G37*
G36*
X9530394D02*
X9515757Y8791327D01*
X9502181Y8777751D01*
X9496118Y8763114D01*
X9530394D01*
Y8797390D01*
D02*
G37*
G36*
X9590070Y8737714D02*
X9555794D01*
Y8703438D01*
X9570431Y8709501D01*
X9584007Y8723077D01*
X9590070Y8737714D01*
D02*
G37*
G36*
X9530394D02*
X9496118D01*
X9502181Y8723077D01*
X9515757Y8709501D01*
X9530394Y8703438D01*
Y8737714D01*
D02*
G37*
G36*
X6400800Y8657576D02*
Y8623300D01*
X6435076D01*
X6429013Y8637937D01*
X6415437Y8651513D01*
X6400800Y8657576D01*
D02*
G37*
G36*
X6375400D02*
X6360763Y8651513D01*
X6347187Y8637937D01*
X6341124Y8623300D01*
X6375400D01*
Y8657576D01*
D02*
G37*
G36*
X6159500D02*
Y8623300D01*
X6193776D01*
X6187713Y8637937D01*
X6174137Y8651513D01*
X6159500Y8657576D01*
D02*
G37*
G36*
X6134100D02*
X6119463Y8651513D01*
X6105887Y8637937D01*
X6099824Y8623300D01*
X6134100D01*
Y8657576D01*
D02*
G37*
G36*
X5930900Y8644876D02*
Y8610600D01*
X5965176D01*
X5959113Y8625237D01*
X5945537Y8638813D01*
X5930900Y8644876D01*
D02*
G37*
G36*
X5905500D02*
X5890863Y8638813D01*
X5877287Y8625237D01*
X5871224Y8610600D01*
X5905500D01*
Y8644876D01*
D02*
G37*
G36*
X5664200D02*
Y8610600D01*
X5698476D01*
X5692413Y8625237D01*
X5678837Y8638813D01*
X5664200Y8644876D01*
D02*
G37*
G36*
X5638800D02*
X5624163Y8638813D01*
X5610587Y8625237D01*
X5604524Y8610600D01*
X5638800D01*
Y8644876D01*
D02*
G37*
G36*
X7911664Y8639525D02*
Y8605249D01*
X7945940D01*
X7939877Y8619886D01*
X7926301Y8633462D01*
X7911664Y8639525D01*
D02*
G37*
G36*
X7886264D02*
X7871627Y8633462D01*
X7858051Y8619886D01*
X7851988Y8605249D01*
X7886264D01*
Y8639525D01*
D02*
G37*
G36*
X6435076Y8597900D02*
X6400800D01*
Y8563624D01*
X6415437Y8569687D01*
X6429013Y8583263D01*
X6435076Y8597900D01*
D02*
G37*
G36*
X6375400D02*
X6341124D01*
X6347187Y8583263D01*
X6360763Y8569687D01*
X6375400Y8563624D01*
Y8597900D01*
D02*
G37*
G36*
X6193776D02*
X6159500D01*
Y8563624D01*
X6174137Y8569687D01*
X6187713Y8583263D01*
X6193776Y8597900D01*
D02*
G37*
G36*
X6134100D02*
X6099824D01*
X6105887Y8583263D01*
X6119463Y8569687D01*
X6134100Y8563624D01*
Y8597900D01*
D02*
G37*
G36*
X5965176Y8585200D02*
X5930900D01*
Y8550924D01*
X5945537Y8556987D01*
X5959113Y8570563D01*
X5965176Y8585200D01*
D02*
G37*
G36*
X5905500D02*
X5871224D01*
X5877287Y8570563D01*
X5890863Y8556987D01*
X5905500Y8550924D01*
Y8585200D01*
D02*
G37*
G36*
X5486400Y8581376D02*
Y8547100D01*
X5520676D01*
X5514613Y8561737D01*
X5501037Y8575313D01*
X5486400Y8581376D01*
D02*
G37*
G36*
X7945940Y8579849D02*
X7911664D01*
Y8545573D01*
X7926301Y8551636D01*
X7939877Y8565212D01*
X7945940Y8579849D01*
D02*
G37*
G36*
X7886264D02*
X7851988D01*
X7858051Y8565212D01*
X7871627Y8551636D01*
X7886264Y8545573D01*
Y8579849D01*
D02*
G37*
G36*
X5698476Y8585200D02*
X5603335D01*
X5603800Y8569960D01*
X5586063Y8562613D01*
X5572487Y8549037D01*
X5566424Y8534400D01*
X5661565D01*
X5661100Y8549640D01*
X5678837Y8556987D01*
X5692413Y8570563D01*
X5698476Y8585200D01*
D02*
G37*
G36*
X8318500Y8174976D02*
Y8140700D01*
X8352776D01*
X8346713Y8155337D01*
X8333137Y8168913D01*
X8318500Y8174976D01*
D02*
G37*
G36*
X8293100D02*
X8278463Y8168913D01*
X8264887Y8155337D01*
X8258824Y8140700D01*
X8293100D01*
Y8174976D01*
D02*
G37*
G36*
X8001000Y8136876D02*
Y8102600D01*
X8035276D01*
X8029213Y8117237D01*
X8015637Y8130813D01*
X8001000Y8136876D01*
D02*
G37*
G36*
X7975600D02*
X7960963Y8130813D01*
X7947387Y8117237D01*
X7941324Y8102600D01*
X7975600D01*
Y8136876D01*
D02*
G37*
G36*
X8352776Y8115300D02*
X8318500D01*
Y8081024D01*
X8333137Y8087087D01*
X8346713Y8100663D01*
X8352776Y8115300D01*
D02*
G37*
G36*
X8293100D02*
X8258824D01*
X8264887Y8100663D01*
X8278463Y8087087D01*
X8293100Y8081024D01*
Y8115300D01*
D02*
G37*
G36*
X8035276Y8077200D02*
X8001000D01*
Y8042924D01*
X8015637Y8048987D01*
X8029213Y8062563D01*
X8035276Y8077200D01*
D02*
G37*
G36*
X7975600D02*
X7941324D01*
X7947387Y8062563D01*
X7960963Y8048987D01*
X7975600Y8042924D01*
Y8077200D01*
D02*
G37*
G36*
X9309100Y7920976D02*
Y7886700D01*
X9343376D01*
X9337313Y7901337D01*
X9323737Y7914913D01*
X9309100Y7920976D01*
D02*
G37*
G36*
X9283700D02*
X9269063Y7914913D01*
X9255487Y7901337D01*
X9249424Y7886700D01*
X9283700D01*
Y7920976D01*
D02*
G37*
G36*
X9343376Y7861300D02*
X9309100D01*
Y7827024D01*
X9323737Y7833087D01*
X9337313Y7846663D01*
X9343376Y7861300D01*
D02*
G37*
G36*
X9283700D02*
X9249424D01*
X9255487Y7846663D01*
X9269063Y7833087D01*
X9283700Y7827024D01*
Y7861300D01*
D02*
G37*
G36*
X9546289Y7586980D02*
X9529111D01*
X9513241Y7580406D01*
X9501094Y7568259D01*
X9494520Y7552389D01*
Y7535211D01*
X9501094Y7519341D01*
X9513241Y7507194D01*
X9529111Y7500620D01*
X9546289D01*
X9562159Y7507194D01*
X9574306Y7519341D01*
X9580880Y7535211D01*
Y7552389D01*
X9574306Y7568259D01*
X9562159Y7580406D01*
X9546289Y7586980D01*
D02*
G37*
G36*
X8123889D02*
X8106711D01*
X8090841Y7580406D01*
X8078694Y7568259D01*
X8072120Y7552389D01*
Y7535211D01*
X8078694Y7519341D01*
X8090841Y7507194D01*
X8106711Y7500620D01*
X8123889D01*
X8139759Y7507194D01*
X8151906Y7519341D01*
X8158480Y7535211D01*
Y7552389D01*
X8151906Y7568259D01*
X8139759Y7580406D01*
X8123889Y7586980D01*
D02*
G37*
G36*
X8674100Y7324076D02*
X8659463Y7318013D01*
X8645887Y7304437D01*
X8639824Y7289800D01*
X8674100D01*
Y7324076D01*
D02*
G37*
G36*
X9474200Y7311376D02*
Y7277100D01*
X9508476D01*
X9502413Y7291737D01*
X9488837Y7305313D01*
X9474200Y7311376D01*
D02*
G37*
G36*
X9448800D02*
X9434163Y7305313D01*
X9420587Y7291737D01*
X9414524Y7277100D01*
X9448800D01*
Y7311376D01*
D02*
G37*
G36*
X8674100Y7264400D02*
X8639824D01*
X8645887Y7249763D01*
X8659463Y7236187D01*
X8674100Y7230124D01*
Y7264400D01*
D02*
G37*
G36*
X8699500Y7324076D02*
Y7277100D01*
Y7230124D01*
X8714137Y7236187D01*
X8722423Y7244473D01*
X8744099Y7243533D01*
X8751465Y7240733D01*
X8751794Y7239941D01*
X8763941Y7227794D01*
X8779811Y7221220D01*
X8796989D01*
X8812859Y7227794D01*
X8825006Y7239941D01*
X8831580Y7255811D01*
Y7272989D01*
X8825006Y7288859D01*
X8812859Y7301006D01*
X8796989Y7307580D01*
X8779811D01*
X8763941Y7301006D01*
X8758527Y7295592D01*
X8733481Y7297940D01*
X8729608Y7299861D01*
X8727713Y7304437D01*
X8714137Y7318013D01*
X8699500Y7324076D01*
D02*
G37*
G36*
X9508476Y7251700D02*
X9474200D01*
Y7217424D01*
X9488837Y7223487D01*
X9502413Y7237063D01*
X9508476Y7251700D01*
D02*
G37*
G36*
X9448800D02*
X9414524D01*
X9420587Y7237063D01*
X9434163Y7223487D01*
X9448800Y7217424D01*
Y7251700D01*
D02*
G37*
G36*
X9774889Y7205980D02*
X9757711D01*
X9741841Y7199406D01*
X9729694Y7187259D01*
X9723120Y7171389D01*
Y7154211D01*
X9729694Y7138341D01*
X9741841Y7126194D01*
X9757711Y7119620D01*
X9774889D01*
X9790759Y7126194D01*
X9802906Y7138341D01*
X9809480Y7154211D01*
Y7171389D01*
X9802906Y7187259D01*
X9790759Y7199406D01*
X9774889Y7205980D01*
D02*
G37*
G36*
X8788400Y6562076D02*
Y6527800D01*
X8822676D01*
X8816613Y6542437D01*
X8803037Y6556013D01*
X8788400Y6562076D01*
D02*
G37*
G36*
X8763000D02*
X8748363Y6556013D01*
X8734787Y6542437D01*
X8728724Y6527800D01*
X8763000D01*
Y6562076D01*
D02*
G37*
G36*
X8822676Y6502400D02*
X8788400D01*
Y6468124D01*
X8803037Y6474187D01*
X8816613Y6487763D01*
X8822676Y6502400D01*
D02*
G37*
G36*
X8763000D02*
X8728724D01*
X8734787Y6487763D01*
X8748363Y6474187D01*
X8763000Y6468124D01*
Y6502400D01*
D02*
G37*
G36*
X9555952Y6395715D02*
Y6361439D01*
X9590228D01*
X9584165Y6376076D01*
X9570589Y6389652D01*
X9555952Y6395715D01*
D02*
G37*
G36*
X9530552D02*
X9515915Y6389652D01*
X9502340Y6376076D01*
X9496277Y6361439D01*
X9530552D01*
Y6395715D01*
D02*
G37*
G36*
X9590228Y6336039D02*
X9555952D01*
Y6301763D01*
X9570589Y6307826D01*
X9584165Y6321402D01*
X9590228Y6336039D01*
D02*
G37*
G36*
X9530552D02*
X9496277D01*
X9502340Y6321402D01*
X9515915Y6307826D01*
X9530552Y6301763D01*
Y6336039D01*
D02*
G37*
G36*
X10629900Y8378176D02*
Y8343900D01*
X10664176D01*
X10658113Y8358537D01*
X10644537Y8372113D01*
X10629900Y8378176D01*
D02*
G37*
G36*
X10604500D02*
X10589863Y8372113D01*
X10576287Y8358537D01*
X10570224Y8343900D01*
X10604500D01*
Y8378176D01*
D02*
G37*
G36*
X5511800Y8327376D02*
Y8293100D01*
X5546076D01*
X5540013Y8307737D01*
X5526437Y8321313D01*
X5511800Y8327376D01*
D02*
G37*
G36*
X5486400D02*
X5471763Y8321313D01*
X5458187Y8307737D01*
X5452124Y8293100D01*
X5486400D01*
Y8327376D01*
D02*
G37*
G36*
X10664176Y8318500D02*
X10629900D01*
Y8284224D01*
X10644537Y8290287D01*
X10658113Y8303863D01*
X10664176Y8318500D01*
D02*
G37*
G36*
X10604500D02*
X10570224D01*
X10576287Y8303863D01*
X10589863Y8290287D01*
X10604500Y8284224D01*
Y8318500D01*
D02*
G37*
G36*
X6502400Y8276576D02*
Y8242300D01*
X6536676D01*
X6530613Y8256937D01*
X6517037Y8270513D01*
X6502400Y8276576D01*
D02*
G37*
G36*
X6477000D02*
X6462363Y8270513D01*
X6448787Y8256937D01*
X6442724Y8242300D01*
X6477000D01*
Y8276576D01*
D02*
G37*
G36*
X5546076Y8267700D02*
X5511800D01*
Y8233424D01*
X5526437Y8239487D01*
X5540013Y8253063D01*
X5546076Y8267700D01*
D02*
G37*
G36*
X5486400D02*
X5452124D01*
X5458187Y8253063D01*
X5471763Y8239487D01*
X5486400Y8233424D01*
Y8267700D01*
D02*
G37*
G36*
X6536676Y8216900D02*
X6502400D01*
Y8182624D01*
X6517037Y8188687D01*
X6530613Y8202263D01*
X6536676Y8216900D01*
D02*
G37*
G36*
X6477000D02*
X6442724D01*
X6448787Y8202263D01*
X6462363Y8188687D01*
X6477000Y8182624D01*
Y8216900D01*
D02*
G37*
G36*
X6235700Y8162276D02*
Y8128000D01*
X6269976D01*
X6263913Y8142637D01*
X6250337Y8156213D01*
X6235700Y8162276D01*
D02*
G37*
G36*
X6210300D02*
X6195663Y8156213D01*
X6182087Y8142637D01*
X6176024Y8128000D01*
X6210300D01*
Y8162276D01*
D02*
G37*
G36*
X6502400Y8149576D02*
Y8115300D01*
X6536676D01*
X6530613Y8129937D01*
X6517037Y8143513D01*
X6502400Y8149576D01*
D02*
G37*
G36*
X6477000D02*
X6462363Y8143513D01*
X6448787Y8129937D01*
X6442724Y8115300D01*
X6477000D01*
Y8149576D01*
D02*
G37*
G36*
X6269976Y8102600D02*
X6235700D01*
Y8068324D01*
X6250337Y8074387D01*
X6263913Y8087963D01*
X6269976Y8102600D01*
D02*
G37*
G36*
X6210300D02*
X6176024D01*
X6182087Y8087963D01*
X6195663Y8074387D01*
X6210300Y8068324D01*
Y8102600D01*
D02*
G37*
G36*
X6536676Y8089900D02*
X6502400D01*
Y8055624D01*
X6517037Y8061687D01*
X6530613Y8075263D01*
X6536676Y8089900D01*
D02*
G37*
G36*
X6477000D02*
X6442724D01*
X6448787Y8075263D01*
X6462363Y8061687D01*
X6477000Y8055624D01*
Y8089900D01*
D02*
G37*
G36*
X5537200Y8035276D02*
Y8001000D01*
X5571476D01*
X5565413Y8015637D01*
X5551837Y8029213D01*
X5537200Y8035276D01*
D02*
G37*
G36*
X5511800D02*
X5497163Y8029213D01*
X5483587Y8015637D01*
X5477524Y8001000D01*
X5511800D01*
Y8035276D01*
D02*
G37*
G36*
X5571476Y7975600D02*
X5537200D01*
Y7941324D01*
X5551837Y7947387D01*
X5565413Y7960963D01*
X5571476Y7975600D01*
D02*
G37*
G36*
X5511800D02*
X5477524D01*
X5483587Y7960963D01*
X5497163Y7947387D01*
X5511800Y7941324D01*
Y7975600D01*
D02*
G37*
G36*
X5994400Y7908276D02*
Y7874000D01*
X6028676D01*
X6022613Y7888637D01*
X6009037Y7902213D01*
X5994400Y7908276D01*
D02*
G37*
G36*
X5969000D02*
X5954363Y7902213D01*
X5940787Y7888637D01*
X5934724Y7874000D01*
X5969000D01*
Y7908276D01*
D02*
G37*
G36*
X6028676Y7848600D02*
X5994400D01*
Y7814324D01*
X6009037Y7820387D01*
X6022613Y7833963D01*
X6028676Y7848600D01*
D02*
G37*
G36*
X5969000D02*
X5934724D01*
X5940787Y7833963D01*
X5954363Y7820387D01*
X5969000Y7814324D01*
Y7848600D01*
D02*
G37*
G36*
X5575300Y7793976D02*
Y7759700D01*
X5609576D01*
X5603513Y7774337D01*
X5589937Y7787913D01*
X5575300Y7793976D01*
D02*
G37*
G36*
X5549900D02*
X5535263Y7787913D01*
X5521687Y7774337D01*
X5515624Y7759700D01*
X5549900D01*
Y7793976D01*
D02*
G37*
G36*
X5609576Y7734300D02*
X5575300D01*
Y7700024D01*
X5589937Y7706087D01*
X5603513Y7719663D01*
X5609576Y7734300D01*
D02*
G37*
G36*
X5549900D02*
X5515624D01*
X5521687Y7719663D01*
X5535263Y7706087D01*
X5549900Y7700024D01*
Y7734300D01*
D02*
G37*
G36*
X6405414Y7639225D02*
Y7604949D01*
X6439689D01*
X6433626Y7619586D01*
X6420051Y7633162D01*
X6405414Y7639225D01*
D02*
G37*
G36*
X6380014D02*
X6365377Y7633162D01*
X6351801Y7619586D01*
X6345738Y7604949D01*
X6380014D01*
Y7639225D01*
D02*
G37*
G36*
X5372719Y7621121D02*
Y7586845D01*
X5406995D01*
X5400932Y7601482D01*
X5387356Y7615058D01*
X5372719Y7621121D01*
D02*
G37*
G36*
X5347319D02*
X5332682Y7615058D01*
X5319106Y7601482D01*
X5313043Y7586845D01*
X5347319D01*
Y7621121D01*
D02*
G37*
G36*
X6439689Y7579549D02*
X6405414D01*
Y7545273D01*
X6420051Y7551336D01*
X6433626Y7564912D01*
X6439689Y7579549D01*
D02*
G37*
G36*
X6380014D02*
X6345738D01*
X6351801Y7564912D01*
X6365377Y7551336D01*
X6380014Y7545273D01*
Y7579549D01*
D02*
G37*
G36*
X5406995Y7561445D02*
X5372719D01*
Y7527169D01*
X5387356Y7533232D01*
X5400932Y7546808D01*
X5406995Y7561445D01*
D02*
G37*
G36*
X5347319D02*
X5313043D01*
X5319106Y7546808D01*
X5332682Y7533232D01*
X5347319Y7527169D01*
Y7561445D01*
D02*
G37*
G36*
X10617200Y7006576D02*
Y6972300D01*
X10651476D01*
X10645413Y6986937D01*
X10631837Y7000513D01*
X10617200Y7006576D01*
D02*
G37*
G36*
X10591800D02*
X10577163Y7000513D01*
X10563587Y6986937D01*
X10557524Y6972300D01*
X10591800D01*
Y7006576D01*
D02*
G37*
G36*
X10651476Y6946900D02*
X10617200D01*
Y6912624D01*
X10631837Y6918687D01*
X10645413Y6932263D01*
X10651476Y6946900D01*
D02*
G37*
G36*
X10591800D02*
X10557524D01*
X10563587Y6932263D01*
X10577163Y6918687D01*
X10591800Y6912624D01*
Y6946900D01*
D02*
G37*
G36*
Y5622276D02*
X10577163Y5616213D01*
X10563587Y5602637D01*
X10557524Y5588000D01*
X10591800D01*
Y5622276D01*
D02*
G37*
G36*
X5321300Y5558776D02*
Y5524500D01*
X5355576D01*
X5349513Y5539137D01*
X5335937Y5552713D01*
X5321300Y5558776D01*
D02*
G37*
G36*
X5295900D02*
X5281263Y5552713D01*
X5267687Y5539137D01*
X5261624Y5524500D01*
X5295900D01*
Y5558776D01*
D02*
G37*
G36*
X5355576Y5499100D02*
X5321300D01*
Y5464824D01*
X5335937Y5470887D01*
X5349513Y5484463D01*
X5355576Y5499100D01*
D02*
G37*
G36*
X5295900D02*
X5261624D01*
X5267687Y5484463D01*
X5281263Y5470887D01*
X5295900Y5464824D01*
Y5499100D01*
D02*
G37*
G36*
X6134100Y5457176D02*
Y5422900D01*
X6168376D01*
X6162313Y5437537D01*
X6148737Y5451113D01*
X6134100Y5457176D01*
D02*
G37*
G36*
X6108700D02*
X6094063Y5451113D01*
X6080487Y5437537D01*
X6074424Y5422900D01*
X6108700D01*
Y5457176D01*
D02*
G37*
G36*
X6168376Y5397500D02*
X6134100D01*
Y5363224D01*
X6148737Y5369287D01*
X6162313Y5382863D01*
X6168376Y5397500D01*
D02*
G37*
G36*
X6108700D02*
X6074424D01*
X6080487Y5382863D01*
X6094063Y5369287D01*
X6108700Y5363224D01*
Y5397500D01*
D02*
G37*
G36*
X7734300Y5038076D02*
Y5003800D01*
X7768576D01*
X7762513Y5018437D01*
X7748937Y5032013D01*
X7734300Y5038076D01*
D02*
G37*
G36*
X7708900D02*
X7694263Y5032013D01*
X7680687Y5018437D01*
X7674624Y5003800D01*
X7708900D01*
Y5038076D01*
D02*
G37*
G36*
X9220200Y5025376D02*
Y4991100D01*
X9254476D01*
X9248413Y5005737D01*
X9234837Y5019313D01*
X9220200Y5025376D01*
D02*
G37*
G36*
X9194800D02*
X9180163Y5019313D01*
X9166587Y5005737D01*
X9160524Y4991100D01*
X9194800D01*
Y5025376D01*
D02*
G37*
G36*
X7768576Y4978400D02*
X7734300D01*
Y4944124D01*
X7748937Y4950187D01*
X7762513Y4963763D01*
X7768576Y4978400D01*
D02*
G37*
G36*
X7708900D02*
X7674624D01*
X7680687Y4963763D01*
X7694263Y4950187D01*
X7708900Y4944124D01*
Y4978400D01*
D02*
G37*
G36*
X9254476Y4965700D02*
X9220200D01*
Y4931424D01*
X9234837Y4937487D01*
X9248413Y4951063D01*
X9254476Y4965700D01*
D02*
G37*
G36*
X9194800D02*
X9160524D01*
X9166587Y4951063D01*
X9180163Y4937487D01*
X9194800Y4931424D01*
Y4965700D01*
D02*
G37*
G36*
X11010900Y8581376D02*
Y8547100D01*
X11045176D01*
X11039113Y8561737D01*
X11025537Y8575313D01*
X11010900Y8581376D01*
D02*
G37*
G36*
X10985500D02*
X10970863Y8575313D01*
X10957287Y8561737D01*
X10951224Y8547100D01*
X10985500D01*
Y8581376D01*
D02*
G37*
G36*
X11045176Y8521700D02*
X11010900D01*
Y8487424D01*
X11025537Y8493487D01*
X11039113Y8507063D01*
X11045176Y8521700D01*
D02*
G37*
G36*
X10985500D02*
X10951224D01*
X10957287Y8507063D01*
X10970863Y8493487D01*
X10985500Y8487424D01*
Y8521700D01*
D02*
G37*
G36*
X4764971Y7963502D02*
Y7929227D01*
X4799247D01*
X4793184Y7943864D01*
X4779608Y7957440D01*
X4764971Y7963502D01*
D02*
G37*
G36*
X4739571D02*
X4724934Y7957440D01*
X4711359Y7943864D01*
X4705296Y7929227D01*
X4739571D01*
Y7963502D01*
D02*
G37*
G36*
X4799247Y7903827D02*
X4764971D01*
Y7869551D01*
X4779608Y7875614D01*
X4793184Y7889190D01*
X4799247Y7903827D01*
D02*
G37*
G36*
X4739571D02*
X4705296D01*
X4711359Y7889190D01*
X4724934Y7875614D01*
X4739571Y7869551D01*
Y7903827D01*
D02*
G37*
G36*
X11125200Y7222476D02*
Y7188200D01*
X11159476D01*
X11153413Y7202837D01*
X11139837Y7216413D01*
X11125200Y7222476D01*
D02*
G37*
G36*
X11099800D02*
X11085163Y7216413D01*
X11071587Y7202837D01*
X11065524Y7188200D01*
X11099800D01*
Y7222476D01*
D02*
G37*
G36*
X11159476Y7162800D02*
X11125200D01*
Y7128524D01*
X11139837Y7134587D01*
X11153413Y7148163D01*
X11159476Y7162800D01*
D02*
G37*
G36*
X11099800D02*
X11065524D01*
X11071587Y7148163D01*
X11085163Y7134587D01*
X11099800Y7128524D01*
Y7162800D01*
D02*
G37*
G36*
X11150600Y5825476D02*
Y5791200D01*
X11184876D01*
X11178813Y5805837D01*
X11165237Y5819413D01*
X11150600Y5825476D01*
D02*
G37*
G36*
X11125200D02*
X11110563Y5819413D01*
X11096987Y5805837D01*
X11090924Y5791200D01*
X11125200D01*
Y5825476D01*
D02*
G37*
G36*
X11184876Y5765800D02*
X11150600D01*
Y5731524D01*
X11165237Y5737587D01*
X11178813Y5751163D01*
X11184876Y5765800D01*
D02*
G37*
G36*
X11125200D02*
X11090924D01*
X11096987Y5751163D01*
X11110563Y5737587D01*
X11125200Y5731524D01*
Y5765800D01*
D02*
G37*
G36*
X7924800Y4606276D02*
Y4572000D01*
X7959076D01*
X7953013Y4586637D01*
X7939437Y4600213D01*
X7924800Y4606276D01*
D02*
G37*
G36*
X7899400D02*
X7884763Y4600213D01*
X7871187Y4586637D01*
X7865124Y4572000D01*
X7899400D01*
Y4606276D01*
D02*
G37*
G36*
X6451600Y4593576D02*
Y4559300D01*
X6485876D01*
X6479813Y4573937D01*
X6466237Y4587513D01*
X6451600Y4593576D01*
D02*
G37*
G36*
X6426200D02*
X6411563Y4587513D01*
X6397987Y4573937D01*
X6391924Y4559300D01*
X6426200D01*
Y4593576D01*
D02*
G37*
G36*
X9423400Y4580876D02*
Y4546600D01*
X9457676D01*
X9451613Y4561237D01*
X9438037Y4574813D01*
X9423400Y4580876D01*
D02*
G37*
G36*
X9398000D02*
X9383363Y4574813D01*
X9369787Y4561237D01*
X9363724Y4546600D01*
X9398000D01*
Y4580876D01*
D02*
G37*
G36*
X7959076Y4546600D02*
X7924800D01*
Y4512324D01*
X7939437Y4518387D01*
X7953013Y4531963D01*
X7959076Y4546600D01*
D02*
G37*
G36*
X7899400D02*
X7865124D01*
X7871187Y4531963D01*
X7884763Y4518387D01*
X7899400Y4512324D01*
Y4546600D01*
D02*
G37*
G36*
X6485876Y4533900D02*
X6451600D01*
Y4499624D01*
X6466237Y4505687D01*
X6479813Y4519263D01*
X6485876Y4533900D01*
D02*
G37*
G36*
X6426200D02*
X6391924D01*
X6397987Y4519263D01*
X6411563Y4505687D01*
X6426200Y4499624D01*
Y4533900D01*
D02*
G37*
G36*
X9457676Y4521200D02*
X9423400D01*
Y4486924D01*
X9438037Y4492987D01*
X9451613Y4506563D01*
X9457676Y4521200D01*
D02*
G37*
G36*
X9398000D02*
X9363724D01*
X9369787Y4506563D01*
X9383363Y4492987D01*
X9398000Y4486924D01*
Y4521200D01*
D02*
G37*
%LPD*%
D49*
X5080000Y8877300D02*
D03*
X11023600Y4686300D02*
D03*
D50*
X7277100Y8978900D02*
D03*
X7531100D02*
D03*
X8039100D02*
D03*
X7785100D02*
D03*
D51*
X7378700Y6955600D02*
D03*
D52*
X7023100Y8978900D02*
D03*
D53*
X8432800Y9105900D02*
D03*
X9601200Y9131300D02*
D03*
D54*
X7378700Y6455600D02*
D03*
D55*
X5981700Y7861300D02*
D03*
X6223000Y8115300D02*
D03*
X6489700Y8229600D02*
D03*
Y8102600D02*
D03*
X6392714Y7592249D02*
D03*
X5360019Y7574145D02*
D03*
X5562600Y7747000D02*
D03*
X5524500Y7988300D02*
D03*
X8788400Y7264400D02*
D03*
X8115300Y7543800D02*
D03*
X9537700D02*
D03*
X10617200Y8331200D02*
D03*
X9753600Y6096000D02*
D03*
X9787959Y5832498D02*
D03*
X7288571Y4840890D02*
D03*
X9543252Y6348739D02*
D03*
X9543094Y8750414D02*
D03*
X8775700Y6515100D02*
D03*
X8686800Y7277100D02*
D03*
X9461500Y7264400D02*
D03*
X9296400Y7874000D02*
D03*
X8305800Y8128000D02*
D03*
X7988300Y8089900D02*
D03*
X6388100Y8610600D02*
D03*
X7898964Y8592549D02*
D03*
X6146800Y8610600D02*
D03*
X5918200Y8597900D02*
D03*
X5651500D02*
D03*
X5473700Y8534400D02*
D03*
X5613400Y8521700D02*
D03*
X9766300Y7162800D02*
D03*
X6121400Y5410200D02*
D03*
X7721600Y4991100D02*
D03*
X9207500Y4978400D02*
D03*
X10604500Y5575300D02*
D03*
Y6959600D02*
D03*
X5308600Y5511800D02*
D03*
X5499100Y8280400D02*
D03*
X9410700Y4533900D02*
D03*
X7912100Y4559300D02*
D03*
X10998200Y8534400D02*
D03*
X6438900Y4546600D02*
D03*
X11137900Y5778500D02*
D03*
X11112500Y7175500D02*
D03*
X4752271Y7916527D02*
D03*
%TF.MD5,cfe7cbe6909493cbbe4c05a376f63952*%
M02*
