%TF.GenerationSoftware,Altium Limited,Altium Designer,25.8.1 (18)*%
G04 Layer_Color=16711935*
%FSLAX45Y45*%
%MOMM*%
%TF.SameCoordinates,04256EBC-0505-4C21-A688-68EA0911807C*%
%TF.FilePolarity,Negative*%
%TF.FileFunction,Soldermask,Bot*%
%TF.Part,Single*%
G01*
G75*
%TA.AperFunction,ComponentPad*%
%ADD51R,1.30000X1.30000*%
%ADD54C,1.30000*%
%TA.AperFunction,ViaPad*%
%ADD77C,6.19760*%
%TA.AperFunction,ComponentPad*%
%ADD78C,1.75320*%
%ADD79R,1.75320X1.75320*%
%ADD80C,1.70320*%
%TA.AperFunction,ViaPad*%
%ADD81C,0.66040*%
D51*
X7378700Y6955600D02*
D03*
D54*
Y6455600D02*
D03*
D77*
X5080000Y8877300D02*
D03*
X11023600Y4686300D02*
D03*
D78*
X7277100Y8978900D02*
D03*
X7531100D02*
D03*
X8039100D02*
D03*
X7785100D02*
D03*
D79*
X7023100D02*
D03*
D80*
X8432800Y9105900D02*
D03*
X9601200Y9131300D02*
D03*
D81*
X5981700Y7861300D02*
D03*
X6223000Y8115300D02*
D03*
X6489700Y8229600D02*
D03*
Y8102600D02*
D03*
X6392714Y7592249D02*
D03*
X5360019Y7574145D02*
D03*
X5562600Y7747000D02*
D03*
X5524500Y7988300D02*
D03*
X8788400Y7264400D02*
D03*
X8115300Y7543800D02*
D03*
X9537700D02*
D03*
X10617200Y8331200D02*
D03*
X9753600Y6096000D02*
D03*
X9787959Y5832498D02*
D03*
X7288571Y4840890D02*
D03*
X9543252Y6348739D02*
D03*
X9543094Y8750414D02*
D03*
X8775700Y6515100D02*
D03*
X8686800Y7277100D02*
D03*
X9461500Y7264400D02*
D03*
X9296400Y7874000D02*
D03*
X8305800Y8128000D02*
D03*
X7988300Y8089900D02*
D03*
X6388100Y8610600D02*
D03*
X7898964Y8592549D02*
D03*
X6146800Y8610600D02*
D03*
X5918200Y8597900D02*
D03*
X5651500D02*
D03*
X5473700Y8534400D02*
D03*
X5613400Y8521700D02*
D03*
X9766300Y7162800D02*
D03*
X6121400Y5410200D02*
D03*
X7721600Y4991100D02*
D03*
X9207500Y4978400D02*
D03*
X10604500Y5575300D02*
D03*
Y6959600D02*
D03*
X5308600Y5511800D02*
D03*
X5499100Y8280400D02*
D03*
X9410700Y4533900D02*
D03*
X7912100Y4559300D02*
D03*
X10998200Y8534400D02*
D03*
X6438900Y4546600D02*
D03*
X11137900Y5778500D02*
D03*
X11112500Y7175500D02*
D03*
X4752271Y7916527D02*
D03*
%TF.MD5,f7465dafb404c6e6b8f80ba3ece6749d*%
M02*
