%TF.GenerationSoftware,Altium Limited,Altium Designer,25.8.1 (18)*%
G04 Layer_Color=8421504*
%FSLAX45Y45*%
%MOMM*%
%TF.SameCoordinates,04256EBC-0505-4C21-A688-68EA0911807C*%
%TF.FilePolarity,Positive*%
%TF.FileFunction,Paste,Top*%
%TF.Part,Single*%
G01*
G75*
%TA.AperFunction,SMDPad,CuDef*%
%ADD10R,2.70000X1.00000*%
%ADD11R,3.80000X1.80000*%
%ADD12R,1.01213X1.10964*%
%ADD13R,0.81213X0.65872*%
%ADD14R,0.58000X1.00000*%
%ADD15R,0.80000X0.90000*%
%ADD16R,0.55880X1.98120*%
%ADD17R,0.81213X0.93108*%
%ADD18R,0.65872X0.81213*%
%ADD19R,1.00000X0.58000*%
G04:AMPARAMS|DCode=20|XSize=1.52424mm|YSize=0.57799mm|CornerRadius=0.28899mm|HoleSize=0mm|Usage=FLASHONLY|Rotation=0.000|XOffset=0mm|YOffset=0mm|HoleType=Round|Shape=RoundedRectangle|*
%AMROUNDEDRECTD20*
21,1,1.52424,0.00000,0,0,0.0*
21,1,0.94625,0.57799,0,0,0.0*
1,1,0.57799,0.47313,0.00000*
1,1,0.57799,-0.47313,0.00000*
1,1,0.57799,-0.47313,0.00000*
1,1,0.57799,0.47313,0.00000*
%
%ADD20ROUNDEDRECTD20*%
%ADD21O,0.30000X1.80000*%
%ADD22R,1.80000X3.80000*%
%ADD23R,1.10964X1.01213*%
%ADD24R,1.00000X2.70000*%
%ADD25R,0.80000X1.00000*%
%ADD26R,1.05464X1.35620*%
%ADD27R,3.20000X1.60000*%
%ADD28R,0.90000X0.80000*%
%ADD29O,1.80000X0.30000*%
%ADD30R,3.20000X1.72000*%
%TA.AperFunction,ConnectorPad*%
%ADD31R,0.90000X0.80000*%
%TA.AperFunction,SMDPad,CuDef*%
%ADD32R,0.66000X1.00000*%
G04:AMPARAMS|DCode=33|XSize=0.6mm|YSize=1mm|CornerRadius=0.051mm|HoleSize=0mm|Usage=FLASHONLY|Rotation=0.000|XOffset=0mm|YOffset=0mm|HoleType=Round|Shape=RoundedRectangle|*
%AMROUNDEDRECTD33*
21,1,0.60000,0.89800,0,0,0.0*
21,1,0.49800,1.00000,0,0,0.0*
1,1,0.10200,0.24900,-0.44900*
1,1,0.10200,-0.24900,-0.44900*
1,1,0.10200,-0.24900,0.44900*
1,1,0.10200,0.24900,0.44900*
%
%ADD33ROUNDEDRECTD33*%
%TA.AperFunction,ConnectorPad*%
%ADD34R,1.00000X2.70000*%
%ADD35R,1.80000X3.80000*%
%TA.AperFunction,SMDPad,CuDef*%
G04:AMPARAMS|DCode=36|XSize=1.05mm|YSize=4.45mm|CornerRadius=0.0525mm|HoleSize=0mm|Usage=FLASHONLY|Rotation=0.000|XOffset=0mm|YOffset=0mm|HoleType=Round|Shape=RoundedRectangle|*
%AMROUNDEDRECTD36*
21,1,1.05000,4.34500,0,0,0.0*
21,1,0.94500,4.45000,0,0,0.0*
1,1,0.10500,0.47250,-2.17250*
1,1,0.10500,-0.47250,-2.17250*
1,1,0.10500,-0.47250,2.17250*
1,1,0.10500,0.47250,2.17250*
%
%ADD36ROUNDEDRECTD36*%
G04:AMPARAMS|DCode=37|XSize=6.45mm|YSize=8.5mm|CornerRadius=0.0645mm|HoleSize=0mm|Usage=FLASHONLY|Rotation=0.000|XOffset=0mm|YOffset=0mm|HoleType=Round|Shape=RoundedRectangle|*
%AMROUNDEDRECTD37*
21,1,6.45000,8.37100,0,0,0.0*
21,1,6.32100,8.50000,0,0,0.0*
1,1,0.12900,3.16050,-4.18550*
1,1,0.12900,-3.16050,-4.18550*
1,1,0.12900,-3.16050,4.18550*
1,1,0.12900,3.16050,4.18550*
%
%ADD37ROUNDEDRECTD37*%
%ADD38R,0.80000X0.80000*%
%ADD39R,1.50822X1.30490*%
%ADD40R,5.40000X2.90000*%
%ADD41R,0.90000X0.70000*%
%ADD42R,0.60000X0.80000*%
%ADD43R,0.80000X0.60000*%
%ADD44R,1.52424X0.57799*%
%ADD45R,2.40000X1.90000*%
D10*
X10375800Y8736000D02*
D03*
Y8336000D02*
D03*
Y8536000D02*
D03*
Y8936000D02*
D03*
X10401300Y7564300D02*
D03*
X10401200Y6180100D02*
D03*
Y5580100D02*
D03*
X10401300Y6964300D02*
D03*
X10401200Y5780100D02*
D03*
X10401300Y7164300D02*
D03*
Y7364300D02*
D03*
X10401200Y5980100D02*
D03*
D11*
X10820800Y9171000D02*
D03*
Y8101000D02*
D03*
X10846300Y7799300D02*
D03*
Y6729300D02*
D03*
X10846200Y6415100D02*
D03*
Y5345100D02*
D03*
D12*
X9906000Y8784625D02*
D03*
X10096500Y7819425D02*
D03*
X10109200Y6587525D02*
D03*
X9906000Y8614375D02*
D03*
X10096500Y7649175D02*
D03*
X10109200Y6417275D02*
D03*
D13*
X9499600Y8509000D02*
D03*
X8305800Y7992471D02*
D03*
X9499600Y8373659D02*
D03*
X8305800Y7857129D02*
D03*
D14*
X9951600Y8305800D02*
D03*
X9489200Y5753100D02*
D03*
X8026400Y5791200D02*
D03*
X7195700Y5740400D02*
D03*
X7307700D02*
D03*
X10063600Y8305800D02*
D03*
X9601200Y5753100D02*
D03*
X8138400Y5791200D02*
D03*
D15*
X9753600Y8013700D02*
D03*
X9625400Y6134100D02*
D03*
X8151000Y7200900D02*
D03*
X5208200Y8280400D02*
D03*
X4852600Y8255000D02*
D03*
X5002600D02*
D03*
X5358200Y8280400D02*
D03*
X8001000Y7200900D02*
D03*
X9903600Y8013700D02*
D03*
X9475400Y6134100D02*
D03*
D16*
X8928100Y9034780D02*
D03*
X9055100Y8542020D02*
D03*
X9182100D02*
D03*
X9055100Y9034780D02*
D03*
X9309100Y8542020D02*
D03*
X8928100D02*
D03*
X9182100Y9034780D02*
D03*
X9309100D02*
D03*
D17*
X8724900Y8550352D02*
D03*
X8509000D02*
D03*
Y8442248D02*
D03*
X8724900D02*
D03*
D18*
X9673041Y7772400D02*
D03*
X9537700D02*
D03*
D19*
X10058400Y6979800D02*
D03*
X10096500Y5760600D02*
D03*
X10058400Y7091800D02*
D03*
X10096500Y5872600D02*
D03*
D20*
X9306981Y7994900D02*
D03*
X9489019Y8089900D02*
D03*
D21*
X8730100Y7438400D02*
D03*
Y6328400D02*
D03*
X9430100D02*
D03*
X8780100D02*
D03*
X8680100Y7438400D02*
D03*
X9430100D02*
D03*
X9380100Y6328400D02*
D03*
X8880100Y7438400D02*
D03*
X8830100Y6328400D02*
D03*
X8880100D02*
D03*
X8930100D02*
D03*
X8980100D02*
D03*
X9180100D02*
D03*
X9130100D02*
D03*
X8680100D02*
D03*
X9030100D02*
D03*
X9080100D02*
D03*
X9230100D02*
D03*
X9280100D02*
D03*
X9330100D02*
D03*
X9380100Y7438400D02*
D03*
X9330100D02*
D03*
X9280100D02*
D03*
X9230100D02*
D03*
X9130100D02*
D03*
X9080100D02*
D03*
X9030100D02*
D03*
X8980100D02*
D03*
X8930100D02*
D03*
X8830100D02*
D03*
X8780100D02*
D03*
X9180100D02*
D03*
D22*
X10047300Y4838300D02*
D03*
X8977300D02*
D03*
X8556600Y4812800D02*
D03*
X7486600D02*
D03*
D23*
X9114825Y5803900D02*
D03*
X8572500Y5778500D02*
D03*
X7581900D02*
D03*
X7752149D02*
D03*
X8402251D02*
D03*
X8944575Y5803900D02*
D03*
D24*
X9812300Y5283300D02*
D03*
X8321600Y5257800D02*
D03*
X8121600D02*
D03*
X7721600D02*
D03*
X7921600D02*
D03*
X9212300Y5283300D02*
D03*
X9412300D02*
D03*
X9612300D02*
D03*
D25*
X8014900Y7416800D02*
D03*
X9371400Y7772400D02*
D03*
X9221400D02*
D03*
X8164900Y7416800D02*
D03*
D26*
X8175178Y6959600D02*
D03*
X8030022D02*
D03*
D27*
X7454900Y7810500D02*
D03*
X6954900D02*
D03*
D28*
X6515100Y7443400D02*
D03*
X6019800Y8345100D02*
D03*
X6261100D02*
D03*
X5765800D02*
D03*
X6515100D02*
D03*
X6235700Y7811700D02*
D03*
X6502400Y7810500D02*
D03*
X6032500Y5929700D02*
D03*
X6515100Y8495100D02*
D03*
X6261100D02*
D03*
X5765800D02*
D03*
X6019800D02*
D03*
X6235700Y7961700D02*
D03*
X6515100Y7593400D02*
D03*
X6502400Y7960500D02*
D03*
X6032500Y5779700D02*
D03*
D29*
X8500100Y6708400D02*
D03*
X9610100Y7258400D02*
D03*
X8500100D02*
D03*
X9610100Y7158400D02*
D03*
X8500100Y6658400D02*
D03*
Y6958400D02*
D03*
Y7008400D02*
D03*
X9610100Y7208400D02*
D03*
X8500100D02*
D03*
Y7158400D02*
D03*
Y7108400D02*
D03*
Y6908400D02*
D03*
Y6858400D02*
D03*
Y6808400D02*
D03*
Y6758400D02*
D03*
Y6608400D02*
D03*
Y6558400D02*
D03*
Y6508400D02*
D03*
X9610100D02*
D03*
Y6558400D02*
D03*
Y6608400D02*
D03*
Y6658400D02*
D03*
Y6708400D02*
D03*
Y6758400D02*
D03*
Y6808400D02*
D03*
Y6858400D02*
D03*
Y6908400D02*
D03*
Y6958400D02*
D03*
Y7008400D02*
D03*
Y7058400D02*
D03*
Y7108400D02*
D03*
X8500100Y7058400D02*
D03*
D30*
X6451600Y6334300D02*
D03*
Y6975300D02*
D03*
D31*
X4940300Y7987100D02*
D03*
Y7837100D02*
D03*
D32*
X5753100Y7858300D02*
D03*
X5658100Y8118300D02*
D03*
X5848100Y7858300D02*
D03*
X5658100D02*
D03*
X5848100Y8118300D02*
D03*
D33*
X5295900Y7817500D02*
D03*
X5390900Y8057500D02*
D03*
X5200900D02*
D03*
D34*
X6840500Y5296000D02*
D03*
X6240500D02*
D03*
X6440500D02*
D03*
X6640500D02*
D03*
D35*
X7075500Y4851000D02*
D03*
X6005500D02*
D03*
D36*
X5257800Y5824300D02*
D03*
X4917800D02*
D03*
X5087800D02*
D03*
X5597800D02*
D03*
X5427800D02*
D03*
D37*
X5257800Y4769300D02*
D03*
D38*
X9702800Y8845500D02*
D03*
Y8680500D02*
D03*
D39*
X7988300Y7923265D02*
D03*
Y7723135D02*
D03*
D40*
X5359400Y7355700D02*
D03*
Y6385700D02*
D03*
D41*
X9715500Y8413900D02*
D03*
X8724900Y9035900D02*
D03*
Y9175900D02*
D03*
X9715500Y8273900D02*
D03*
D42*
X7604300Y5575300D02*
D03*
X7734300D02*
D03*
X8240800Y5562600D02*
D03*
X8370800D02*
D03*
X9235900Y5588000D02*
D03*
X9105900D02*
D03*
D43*
X10121900Y8688300D02*
D03*
Y8558300D02*
D03*
X10134600Y6237200D02*
D03*
Y6107200D02*
D03*
X10096500Y7313700D02*
D03*
Y7443700D02*
D03*
D44*
X9306981Y8184900D02*
D03*
D45*
X8648700Y8180600D02*
D03*
Y7770600D02*
D03*
%TF.MD5,c23b99eab00836cbff03ee41bbeb085d*%
M02*
