%TF.GenerationSoftware,Altium Limited,Altium Designer,25.8.1 (18)*%
G04 Layer_Physical_Order=4*
G04 Layer_Color=16711680*
%FSLAX45Y45*%
%MOMM*%
%TF.SameCoordinates,04256EBC-0505-4C21-A688-68EA0911807C*%
%TF.FilePolarity,Positive*%
%TF.FileFunction,Copper,L4,Bot,Signal*%
%TF.Part,Single*%
G01*
G75*
%TA.AperFunction,Conductor*%
%ADD48C,0.25400*%
%TA.AperFunction,ViaPad*%
%ADD49C,5.99440*%
%TA.AperFunction,ComponentPad*%
%ADD50C,1.55000*%
%ADD51R,1.30000X1.30000*%
%ADD52R,1.55000X1.55000*%
%ADD53C,1.50000*%
%ADD54C,1.30000*%
%TA.AperFunction,ViaPad*%
%ADD55C,0.45720*%
G36*
X11227044Y9349119D02*
X11227926Y9349182D01*
X11228784Y9348967D01*
X11242389Y9348291D01*
X11269366Y9344446D01*
X11295872Y9338140D01*
X11321686Y9329426D01*
X11346590Y9318379D01*
X11370378Y9305089D01*
X11392842Y9289673D01*
X11413796Y9272258D01*
X11423430Y9262624D01*
X11437794Y9248260D01*
X11448311Y9237256D01*
X11465914Y9215015D01*
X11481298Y9191218D01*
X11494339Y9166061D01*
X11504919Y9139771D01*
X11512937Y9112596D01*
X11518325Y9084777D01*
X11521032Y9056567D01*
Y9029700D01*
Y4457700D01*
Y4443156D01*
X11518180Y4414210D01*
X11512506Y4385682D01*
X11504062Y4357847D01*
X11492931Y4330974D01*
X11479219Y4305321D01*
X11463061Y4281139D01*
X11444608Y4258654D01*
X11434324Y4248370D01*
X11434324Y4248369D01*
X11420177Y4234222D01*
X11386903Y4211990D01*
X11349931Y4196675D01*
X11310682Y4188868D01*
X4862256D01*
X4833311Y4191719D01*
X4804782Y4197394D01*
X4776947Y4205837D01*
X4750074Y4216969D01*
X4724421Y4230681D01*
X4700239Y4246839D01*
X4677754Y4265292D01*
X4667470Y4275575D01*
X4656576Y4286470D01*
X4656575Y4286471D01*
X4646291Y4296754D01*
X4627839Y4319239D01*
X4611680Y4343422D01*
X4597968Y4369076D01*
X4586837Y4395947D01*
X4578394Y4423783D01*
X4572719Y4452311D01*
X4569868Y4481256D01*
Y4495800D01*
X4569868Y9042394D01*
X4569872Y9057015D01*
X4572729Y9085952D01*
X4578406Y9114466D01*
X4586851Y9142290D01*
X4597983Y9169154D01*
X4611691Y9194796D01*
X4627849Y9218973D01*
X4646296Y9241450D01*
X4656575Y9251730D01*
X4667470Y9262624D01*
X4667470Y9262624D01*
X4677754Y9272908D01*
X4700239Y9291361D01*
X4724422Y9307519D01*
X4750076Y9321232D01*
X4776947Y9332362D01*
X4804783Y9340806D01*
X4833310Y9346480D01*
X4862256Y9349332D01*
X11225346D01*
X11227044Y9349119D01*
D02*
G37*
%LPC*%
G36*
X9613749Y9226620D02*
X9588651D01*
X9564408Y9220124D01*
X9542672Y9207575D01*
X9524925Y9189828D01*
X9512376Y9168092D01*
X9505880Y9143849D01*
Y9118751D01*
X9512376Y9094508D01*
X9524925Y9072772D01*
X9542672Y9055025D01*
X9564408Y9042476D01*
X9588651Y9035980D01*
X9613749D01*
X9637992Y9042476D01*
X9659728Y9055025D01*
X9677475Y9072772D01*
X9690024Y9094508D01*
X9696520Y9118751D01*
Y9143849D01*
X9690024Y9168092D01*
X9677475Y9189828D01*
X9659728Y9207575D01*
X9637992Y9220124D01*
X9613749Y9226620D01*
D02*
G37*
G36*
X8445349Y9201220D02*
X8420251D01*
X8396008Y9194724D01*
X8374272Y9182175D01*
X8356525Y9164428D01*
X8343976Y9142692D01*
X8337480Y9118449D01*
Y9093351D01*
X8343976Y9069108D01*
X8356525Y9047372D01*
X8374272Y9029625D01*
X8396008Y9017076D01*
X8420251Y9010580D01*
X8445349D01*
X8469592Y9017076D01*
X8491328Y9029625D01*
X8509075Y9047372D01*
X8521624Y9069108D01*
X8528120Y9093351D01*
Y9118449D01*
X8521624Y9142692D01*
X8509075Y9164428D01*
X8491328Y9182175D01*
X8469592Y9194724D01*
X8445349Y9201220D01*
D02*
G37*
G36*
X7290647Y9081800D02*
X7289800D01*
Y8991600D01*
X7380000D01*
Y8992447D01*
X7372988Y9018618D01*
X7359440Y9042082D01*
X7340282Y9061240D01*
X7316818Y9074788D01*
X7290647Y9081800D01*
D02*
G37*
G36*
X7264400D02*
X7263553D01*
X7237382Y9074788D01*
X7213918Y9061240D01*
X7194760Y9042082D01*
X7181212Y9018618D01*
X7174200Y8992447D01*
Y8991600D01*
X7264400D01*
Y9081800D01*
D02*
G37*
G36*
X5105587Y9202420D02*
X5092700D01*
Y8890000D01*
X5405120D01*
Y8902887D01*
X5397114Y8953432D01*
X5381301Y9002103D01*
X5358068Y9047700D01*
X5327988Y9089101D01*
X5291801Y9125288D01*
X5250400Y9155368D01*
X5204803Y9178601D01*
X5156132Y9194414D01*
X5105587Y9202420D01*
D02*
G37*
G36*
X5067300D02*
X5054413D01*
X5003868Y9194414D01*
X4955197Y9178601D01*
X4909600Y9155368D01*
X4868199Y9125288D01*
X4832012Y9089101D01*
X4801932Y9047700D01*
X4778699Y9002103D01*
X4762886Y8953432D01*
X4754880Y8902887D01*
Y8890000D01*
X5067300D01*
Y9202420D01*
D02*
G37*
G36*
X8051978Y9076720D02*
X8026222D01*
X8001343Y9070054D01*
X7979037Y9057175D01*
X7960825Y9038963D01*
X7947946Y9016657D01*
X7941280Y8991778D01*
Y8966022D01*
X7947946Y8941143D01*
X7960825Y8918837D01*
X7979037Y8900625D01*
X8001343Y8887746D01*
X8026222Y8881080D01*
X8051978D01*
X8076857Y8887746D01*
X8099163Y8900625D01*
X8117375Y8918837D01*
X8130254Y8941143D01*
X8136920Y8966022D01*
Y8991778D01*
X8130254Y9016657D01*
X8117375Y9038963D01*
X8099163Y9057175D01*
X8076857Y9070054D01*
X8051978Y9076720D01*
D02*
G37*
G36*
X7797978D02*
X7772222D01*
X7747343Y9070054D01*
X7725037Y9057175D01*
X7706825Y9038963D01*
X7693946Y9016657D01*
X7687280Y8991778D01*
Y8966022D01*
X7693946Y8941143D01*
X7706825Y8918837D01*
X7725037Y8900625D01*
X7747343Y8887746D01*
X7772222Y8881080D01*
X7797978D01*
X7822857Y8887746D01*
X7845163Y8900625D01*
X7863375Y8918837D01*
X7876254Y8941143D01*
X7882920Y8966022D01*
Y8991778D01*
X7876254Y9016657D01*
X7863375Y9038963D01*
X7845163Y9057175D01*
X7822857Y9070054D01*
X7797978Y9076720D01*
D02*
G37*
G36*
X7380000Y8966200D02*
X7289800D01*
Y8876000D01*
X7290647D01*
X7316818Y8883012D01*
X7340282Y8896560D01*
X7359440Y8915718D01*
X7372988Y8939182D01*
X7380000Y8965353D01*
Y8966200D01*
D02*
G37*
G36*
X7264400D02*
X7174200D01*
Y8965353D01*
X7181212Y8939182D01*
X7194760Y8915718D01*
X7213918Y8896560D01*
X7237382Y8883012D01*
X7263553Y8876000D01*
X7264400D01*
Y8966200D01*
D02*
G37*
G36*
X9551683Y8793594D02*
X9534505D01*
X9518635Y8787020D01*
X9506488Y8774873D01*
X9499914Y8759003D01*
Y8741825D01*
X9506488Y8725954D01*
X9518635Y8713808D01*
X9534505Y8707234D01*
X9551683D01*
X9567553Y8713808D01*
X9579700Y8725954D01*
X9586274Y8741825D01*
Y8759003D01*
X9579700Y8774873D01*
X9567553Y8787020D01*
X9551683Y8793594D01*
D02*
G37*
G36*
X7543978Y9076720D02*
X7518222D01*
X7493343Y9070054D01*
X7471037Y9057175D01*
X7452825Y9038963D01*
X7439946Y9016657D01*
X7433280Y8991778D01*
Y8966022D01*
X7439946Y8941143D01*
X7452825Y8918837D01*
X7471037Y8900625D01*
X7493343Y8887746D01*
X7518222Y8881080D01*
X7543978D01*
X7568857Y8887746D01*
X7572524Y8889864D01*
X7750989Y8711398D01*
X7743213Y8692625D01*
X7356988D01*
X7326306Y8723306D01*
X7120920Y8928692D01*
Y9076720D01*
X6925280D01*
Y8881080D01*
X7073308D01*
X7278694Y8675694D01*
X7319236Y8635152D01*
X7330158Y8627854D01*
X7343042Y8625291D01*
X7844091D01*
X7857372Y8604971D01*
X7855784Y8601138D01*
Y8583960D01*
X7862358Y8568089D01*
X7874505Y8555943D01*
X7890375Y8549369D01*
X7907553D01*
X7923424Y8555943D01*
X7935570Y8568089D01*
X7942144Y8583960D01*
Y8601138D01*
X7940556Y8604971D01*
X7953837Y8625291D01*
X8277838D01*
X9338069Y7565060D01*
X9340673Y7562360D01*
Y7557449D01*
X9343236Y7544566D01*
X9350534Y7533643D01*
X9386244Y7497934D01*
X9397166Y7490636D01*
X9410050Y7488073D01*
X9456915D01*
X9732633Y7212354D01*
Y7190199D01*
X9729694Y7187259D01*
X9723120Y7171389D01*
Y7154211D01*
X9729694Y7138341D01*
X9741841Y7126194D01*
X9757711Y7119620D01*
X9774889D01*
X9790759Y7126194D01*
X9802906Y7138341D01*
X9809480Y7154211D01*
Y7171389D01*
X9802906Y7187259D01*
X9799967Y7190199D01*
Y7226298D01*
X9799967Y7226300D01*
X9797404Y7239183D01*
X9790106Y7250106D01*
X9557106Y7483106D01*
X9561874Y7507075D01*
X9562159Y7507194D01*
X9574306Y7519341D01*
X9580880Y7535211D01*
Y7552389D01*
X9574306Y7568259D01*
X9562159Y7580406D01*
X9546289Y7586980D01*
X9542132D01*
X9315806Y7813306D01*
X9320574Y7837275D01*
X9320859Y7837394D01*
X9333006Y7849541D01*
X9339580Y7865411D01*
Y7882589D01*
X9333006Y7898459D01*
X9320859Y7910606D01*
X9304989Y7917180D01*
X9287811D01*
X9271941Y7910606D01*
X9259794Y7898459D01*
X9259675Y7898174D01*
X9235706Y7893406D01*
X8400628Y8728484D01*
X8389706Y8735782D01*
X8376822Y8738345D01*
X7819267D01*
X7620136Y8937476D01*
X7622254Y8941143D01*
X7628920Y8966022D01*
Y8991778D01*
X7622254Y9016657D01*
X7609375Y9038963D01*
X7591163Y9057175D01*
X7568857Y9070054D01*
X7543978Y9076720D01*
D02*
G37*
G36*
X6396689Y8653780D02*
X6379511D01*
X6363641Y8647206D01*
X6351494Y8635059D01*
X6344920Y8619189D01*
Y8602011D01*
X6351494Y8586141D01*
X6363641Y8573994D01*
X6379511Y8567420D01*
X6396689D01*
X6412559Y8573994D01*
X6424706Y8586141D01*
X6431280Y8602011D01*
Y8619189D01*
X6424706Y8635059D01*
X6412559Y8647206D01*
X6396689Y8653780D01*
D02*
G37*
G36*
X6155389D02*
X6138211D01*
X6122341Y8647206D01*
X6110194Y8635059D01*
X6103620Y8619189D01*
Y8602011D01*
X6110194Y8586141D01*
X6122341Y8573994D01*
X6138211Y8567420D01*
X6155389D01*
X6171259Y8573994D01*
X6183406Y8586141D01*
X6189980Y8602011D01*
Y8619189D01*
X6183406Y8635059D01*
X6171259Y8647206D01*
X6155389Y8653780D01*
D02*
G37*
G36*
X5926789Y8641080D02*
X5909611D01*
X5893741Y8634506D01*
X5881594Y8622359D01*
X5875020Y8606489D01*
Y8589311D01*
X5881594Y8573441D01*
X5893741Y8561294D01*
X5909611Y8554720D01*
X5926789D01*
X5942659Y8561294D01*
X5954806Y8573441D01*
X5961380Y8589311D01*
Y8606489D01*
X5954806Y8622359D01*
X5942659Y8634506D01*
X5926789Y8641080D01*
D02*
G37*
G36*
X5405120Y8864600D02*
X5092700D01*
Y8552180D01*
X5105587D01*
X5156132Y8560186D01*
X5204803Y8575999D01*
X5250400Y8599232D01*
X5291801Y8629312D01*
X5327988Y8665499D01*
X5358068Y8706900D01*
X5381301Y8752497D01*
X5397114Y8801168D01*
X5405120Y8851713D01*
Y8864600D01*
D02*
G37*
G36*
X5067300D02*
X4754880D01*
Y8851713D01*
X4762886Y8801168D01*
X4778699Y8752497D01*
X4801932Y8706900D01*
X4832012Y8665499D01*
X4868199Y8629312D01*
X4909600Y8599232D01*
X4955197Y8575999D01*
X5003868Y8560186D01*
X5054413Y8552180D01*
X5067300D01*
Y8864600D01*
D02*
G37*
G36*
X11006789Y8577580D02*
X10989611D01*
X10973741Y8571006D01*
X10961594Y8558859D01*
X10955020Y8542989D01*
Y8525811D01*
X10961594Y8509941D01*
X10973741Y8497794D01*
X10989611Y8491220D01*
X11006789D01*
X11022659Y8497794D01*
X11034806Y8509941D01*
X11041380Y8525811D01*
Y8542989D01*
X11034806Y8558859D01*
X11022659Y8571006D01*
X11006789Y8577580D01*
D02*
G37*
G36*
X5482289D02*
X5465111D01*
X5449241Y8571006D01*
X5437094Y8558859D01*
X5430520Y8542989D01*
Y8525811D01*
X5437094Y8509941D01*
X5449241Y8497794D01*
X5465111Y8491220D01*
X5482289D01*
X5498159Y8497794D01*
X5510306Y8509941D01*
X5516880Y8525811D01*
Y8542989D01*
X5510306Y8558859D01*
X5498159Y8571006D01*
X5482289Y8577580D01*
D02*
G37*
G36*
X5660089Y8641080D02*
X5642911D01*
X5627041Y8634506D01*
X5614894Y8622359D01*
X5608320Y8606489D01*
Y8589311D01*
X5610023Y8585200D01*
X5605305Y8566807D01*
X5599100Y8562514D01*
X5588941Y8558306D01*
X5576794Y8546159D01*
X5570220Y8530289D01*
Y8513111D01*
X5576794Y8497241D01*
X5588941Y8485094D01*
X5604811Y8478520D01*
X5621989D01*
X5637859Y8485094D01*
X5650006Y8497241D01*
X5656580Y8513111D01*
Y8530289D01*
X5654877Y8534400D01*
X5659595Y8552793D01*
X5665800Y8557086D01*
X5675959Y8561294D01*
X5688106Y8573441D01*
X5694680Y8589311D01*
Y8606489D01*
X5688106Y8622359D01*
X5675959Y8634506D01*
X5660089Y8641080D01*
D02*
G37*
G36*
X10625789Y8374380D02*
X10608611D01*
X10592741Y8367806D01*
X10580594Y8355659D01*
X10574020Y8339789D01*
Y8322611D01*
X10580594Y8306741D01*
X10592741Y8294594D01*
X10608611Y8288020D01*
X10625789D01*
X10641659Y8294594D01*
X10653806Y8306741D01*
X10660380Y8322611D01*
Y8339789D01*
X10653806Y8355659D01*
X10641659Y8367806D01*
X10625789Y8374380D01*
D02*
G37*
G36*
X5507689Y8323580D02*
X5490511D01*
X5474641Y8317006D01*
X5462494Y8304859D01*
X5455920Y8288989D01*
Y8271811D01*
X5462494Y8255941D01*
X5474641Y8243794D01*
X5490511Y8237220D01*
X5507689D01*
X5523559Y8243794D01*
X5535706Y8255941D01*
X5542280Y8271811D01*
Y8288989D01*
X5535706Y8304859D01*
X5523559Y8317006D01*
X5507689Y8323580D01*
D02*
G37*
G36*
X6498289Y8272780D02*
X6481111D01*
X6465241Y8266206D01*
X6453094Y8254059D01*
X6446520Y8238189D01*
Y8221011D01*
X6453094Y8205141D01*
X6465241Y8192994D01*
X6481111Y8186420D01*
X6498289D01*
X6514159Y8192994D01*
X6526306Y8205141D01*
X6532880Y8221011D01*
Y8238189D01*
X6526306Y8254059D01*
X6514159Y8266206D01*
X6498289Y8272780D01*
D02*
G37*
G36*
X8314389Y8171180D02*
X8297211D01*
X8281341Y8164606D01*
X8269194Y8152459D01*
X8262620Y8136589D01*
Y8119411D01*
X8269194Y8103541D01*
X8281341Y8091394D01*
X8297211Y8084820D01*
X8314389D01*
X8330259Y8091394D01*
X8342406Y8103541D01*
X8348980Y8119411D01*
Y8136589D01*
X8342406Y8152459D01*
X8330259Y8164606D01*
X8314389Y8171180D01*
D02*
G37*
G36*
X6231589Y8158480D02*
X6214411D01*
X6198541Y8151906D01*
X6186394Y8139759D01*
X6179820Y8123889D01*
Y8106711D01*
X6186394Y8090841D01*
X6198541Y8078694D01*
X6214411Y8072120D01*
X6231589D01*
X6247459Y8078694D01*
X6259606Y8090841D01*
X6266180Y8106711D01*
Y8123889D01*
X6259606Y8139759D01*
X6247459Y8151906D01*
X6231589Y8158480D01*
D02*
G37*
G36*
X6498289Y8145780D02*
X6481111D01*
X6465241Y8139206D01*
X6453094Y8127059D01*
X6446520Y8111189D01*
Y8094011D01*
X6453094Y8078141D01*
X6465241Y8065994D01*
X6481111Y8059420D01*
X6498289D01*
X6514159Y8065994D01*
X6526306Y8078141D01*
X6532880Y8094011D01*
Y8111189D01*
X6526306Y8127059D01*
X6514159Y8139206D01*
X6498289Y8145780D01*
D02*
G37*
G36*
X7996889Y8133080D02*
X7979711D01*
X7963841Y8126506D01*
X7951694Y8114359D01*
X7945120Y8098489D01*
Y8081311D01*
X7951694Y8065441D01*
X7963841Y8053294D01*
X7979711Y8046720D01*
X7996889D01*
X8012759Y8053294D01*
X8024906Y8065441D01*
X8031480Y8081311D01*
Y8098489D01*
X8024906Y8114359D01*
X8012759Y8126506D01*
X7996889Y8133080D01*
D02*
G37*
G36*
X5533089Y8031480D02*
X5515911D01*
X5500041Y8024906D01*
X5487894Y8012759D01*
X5481320Y7996889D01*
Y7979711D01*
X5487894Y7963841D01*
X5500041Y7951694D01*
X5515911Y7945120D01*
X5533089D01*
X5548959Y7951694D01*
X5561106Y7963841D01*
X5567680Y7979711D01*
Y7996889D01*
X5561106Y8012759D01*
X5548959Y8024906D01*
X5533089Y8031480D01*
D02*
G37*
G36*
X4760860Y7959707D02*
X4743682D01*
X4727812Y7953133D01*
X4715665Y7940986D01*
X4709091Y7925116D01*
Y7907938D01*
X4715665Y7892067D01*
X4727812Y7879920D01*
X4743682Y7873347D01*
X4760860D01*
X4776731Y7879920D01*
X4788878Y7892067D01*
X4795451Y7907938D01*
Y7925116D01*
X4788878Y7940986D01*
X4776731Y7953133D01*
X4760860Y7959707D01*
D02*
G37*
G36*
X5990289Y7904480D02*
X5973111D01*
X5957241Y7897906D01*
X5945094Y7885759D01*
X5938520Y7869889D01*
Y7852711D01*
X5945094Y7836841D01*
X5957241Y7824694D01*
X5973111Y7818120D01*
X5990289D01*
X6006159Y7824694D01*
X6018306Y7836841D01*
X6024880Y7852711D01*
Y7869889D01*
X6018306Y7885759D01*
X6006159Y7897906D01*
X5990289Y7904480D01*
D02*
G37*
G36*
X5571189Y7790180D02*
X5554011D01*
X5538141Y7783606D01*
X5525994Y7771459D01*
X5519420Y7755589D01*
Y7738411D01*
X5525994Y7722541D01*
X5538141Y7710394D01*
X5554011Y7703820D01*
X5571189D01*
X5587059Y7710394D01*
X5599206Y7722541D01*
X5605780Y7738411D01*
Y7755589D01*
X5599206Y7771459D01*
X5587059Y7783606D01*
X5571189Y7790180D01*
D02*
G37*
G36*
X8128000Y7590776D02*
Y7556500D01*
X8162276D01*
X8156213Y7571137D01*
X8142637Y7584713D01*
X8128000Y7590776D01*
D02*
G37*
G36*
X8102600D02*
X8087963Y7584713D01*
X8074387Y7571137D01*
X8068324Y7556500D01*
X8102600D01*
Y7590776D01*
D02*
G37*
G36*
X6401303Y7635429D02*
X6384125D01*
X6368254Y7628855D01*
X6356107Y7616708D01*
X6349534Y7600838D01*
Y7583660D01*
X6356107Y7567790D01*
X6368254Y7555643D01*
X6384125Y7549069D01*
X6401303D01*
X6417173Y7555643D01*
X6429320Y7567790D01*
X6435894Y7583660D01*
Y7600838D01*
X6429320Y7616708D01*
X6417173Y7628855D01*
X6401303Y7635429D01*
D02*
G37*
G36*
X5368608Y7617325D02*
X5351430D01*
X5335560Y7610751D01*
X5323413Y7598604D01*
X5316839Y7582734D01*
Y7565556D01*
X5323413Y7549685D01*
X5335560Y7537539D01*
X5351430Y7530965D01*
X5368608D01*
X5384479Y7537539D01*
X5396625Y7549685D01*
X5403199Y7565556D01*
Y7582734D01*
X5396625Y7598604D01*
X5384479Y7610751D01*
X5368608Y7617325D01*
D02*
G37*
G36*
X8162276Y7531100D02*
X8128000D01*
Y7496824D01*
X8142637Y7502887D01*
X8156213Y7516463D01*
X8162276Y7531100D01*
D02*
G37*
G36*
X8102600D02*
X8068324D01*
X8074387Y7516463D01*
X8087963Y7502887D01*
X8102600Y7496824D01*
Y7531100D01*
D02*
G37*
G36*
X8801100Y7311376D02*
Y7277100D01*
X8835376D01*
X8829313Y7291737D01*
X8815737Y7305313D01*
X8801100Y7311376D01*
D02*
G37*
G36*
X9470089Y7307580D02*
X9452911D01*
X9437041Y7301006D01*
X9424894Y7288859D01*
X9418320Y7272989D01*
Y7255811D01*
X9424894Y7239941D01*
X9437041Y7227794D01*
X9452911Y7221220D01*
X9470089D01*
X9485959Y7227794D01*
X9498106Y7239941D01*
X9504680Y7255811D01*
Y7272989D01*
X9498106Y7288859D01*
X9485959Y7301006D01*
X9470089Y7307580D01*
D02*
G37*
G36*
X8835376Y7251700D02*
X8801100D01*
Y7217424D01*
X8815737Y7223487D01*
X8829313Y7237063D01*
X8835376Y7251700D01*
D02*
G37*
G36*
X8695389Y7320280D02*
X8678211D01*
X8662341Y7313706D01*
X8650194Y7301559D01*
X8643620Y7285689D01*
Y7268511D01*
X8650194Y7252641D01*
X8662341Y7240494D01*
X8678211Y7233920D01*
X8695389D01*
X8711259Y7240494D01*
X8721367Y7250601D01*
X8733753Y7249888D01*
X8743218Y7247371D01*
X8747487Y7237063D01*
X8761063Y7223487D01*
X8775700Y7217424D01*
Y7264400D01*
Y7311376D01*
X8761063Y7305313D01*
X8748753Y7293003D01*
X8739693Y7292625D01*
X8726484Y7294129D01*
X8723406Y7301559D01*
X8711259Y7313706D01*
X8695389Y7320280D01*
D02*
G37*
G36*
X11121089Y7218680D02*
X11103911D01*
X11088041Y7212106D01*
X11075894Y7199959D01*
X11069320Y7184089D01*
Y7166911D01*
X11075894Y7151041D01*
X11088041Y7138894D01*
X11103911Y7132320D01*
X11121089D01*
X11136959Y7138894D01*
X11149106Y7151041D01*
X11155680Y7166911D01*
Y7184089D01*
X11149106Y7199959D01*
X11136959Y7212106D01*
X11121089Y7218680D01*
D02*
G37*
G36*
X7469100Y7046000D02*
X7391400D01*
Y6968300D01*
X7469100D01*
Y7046000D01*
D02*
G37*
G36*
X7366000D02*
X7288300D01*
Y6968300D01*
X7366000D01*
Y7046000D01*
D02*
G37*
G36*
X10613089Y7002780D02*
X10595911D01*
X10580041Y6996206D01*
X10567894Y6984059D01*
X10561320Y6968189D01*
Y6951011D01*
X10567894Y6935141D01*
X10580041Y6922994D01*
X10595911Y6916420D01*
X10613089D01*
X10628959Y6922994D01*
X10641106Y6935141D01*
X10647680Y6951011D01*
Y6968189D01*
X10641106Y6984059D01*
X10628959Y6996206D01*
X10613089Y7002780D01*
D02*
G37*
G36*
X7469100Y6942900D02*
X7391400D01*
Y6865200D01*
X7469100D01*
Y6942900D01*
D02*
G37*
G36*
X7366000D02*
X7288300D01*
Y6865200D01*
X7366000D01*
Y6942900D01*
D02*
G37*
G36*
X8784289Y6558280D02*
X8767111D01*
X8751241Y6551706D01*
X8739094Y6539559D01*
X8732520Y6523689D01*
Y6506511D01*
X8739094Y6490641D01*
X8751241Y6478494D01*
X8767111Y6471920D01*
X8784289D01*
X8800159Y6478494D01*
X8812306Y6490641D01*
X8818880Y6506511D01*
Y6523689D01*
X8812306Y6539559D01*
X8800159Y6551706D01*
X8784289Y6558280D01*
D02*
G37*
G36*
X7389933Y6540920D02*
X7367467D01*
X7345768Y6535106D01*
X7326312Y6523873D01*
X7310427Y6507988D01*
X7299194Y6488532D01*
X7293380Y6466833D01*
Y6444367D01*
X7299194Y6422668D01*
X7310427Y6403212D01*
X7326312Y6387327D01*
X7345768Y6376094D01*
X7367467Y6370280D01*
X7389933D01*
X7411632Y6376094D01*
X7431088Y6387327D01*
X7446973Y6403212D01*
X7458206Y6422668D01*
X7464020Y6444367D01*
Y6466833D01*
X7458206Y6488532D01*
X7446973Y6507988D01*
X7431088Y6523873D01*
X7411632Y6535106D01*
X7389933Y6540920D01*
D02*
G37*
G36*
X9551841Y6391919D02*
X9534663D01*
X9518793Y6385345D01*
X9506646Y6373199D01*
X9500072Y6357328D01*
Y6340150D01*
X9506646Y6324280D01*
X9518793Y6312133D01*
X9534663Y6305559D01*
X9551841D01*
X9567712Y6312133D01*
X9579859Y6324280D01*
X9586432Y6340150D01*
Y6357328D01*
X9579859Y6373199D01*
X9567712Y6385345D01*
X9551841Y6391919D01*
D02*
G37*
G36*
X9766300Y6142976D02*
Y6108700D01*
X9800576D01*
X9794513Y6123337D01*
X9780937Y6136913D01*
X9766300Y6142976D01*
D02*
G37*
G36*
X9740900D02*
X9726263Y6136913D01*
X9712687Y6123337D01*
X9706624Y6108700D01*
X9740900D01*
Y6142976D01*
D02*
G37*
G36*
X9800576Y6083300D02*
X9766300D01*
Y6049024D01*
X9780937Y6055087D01*
X9794513Y6068663D01*
X9800576Y6083300D01*
D02*
G37*
G36*
X9740900D02*
X9706624D01*
X9712687Y6068663D01*
X9726263Y6055087D01*
X9740900Y6049024D01*
Y6083300D01*
D02*
G37*
G36*
X9800659Y5879474D02*
Y5845198D01*
X9834935D01*
X9828872Y5859835D01*
X9815296Y5873411D01*
X9800659Y5879474D01*
D02*
G37*
G36*
X9775259D02*
X9760622Y5873411D01*
X9747046Y5859835D01*
X9740983Y5845198D01*
X9775259D01*
Y5879474D01*
D02*
G37*
G36*
X9834935Y5819798D02*
X9800659D01*
Y5785523D01*
X9815296Y5791586D01*
X9828872Y5805161D01*
X9834935Y5819798D01*
D02*
G37*
G36*
X9775259D02*
X9740983D01*
X9747046Y5805161D01*
X9760622Y5791586D01*
X9775259Y5785523D01*
Y5819798D01*
D02*
G37*
G36*
X11146489Y5821680D02*
X11129311D01*
X11113441Y5815106D01*
X11101294Y5802959D01*
X11094720Y5787089D01*
Y5769911D01*
X11101294Y5754041D01*
X11113441Y5741894D01*
X11129311Y5735320D01*
X11146489D01*
X11162359Y5741894D01*
X11174506Y5754041D01*
X11181080Y5769911D01*
Y5787089D01*
X11174506Y5802959D01*
X11162359Y5815106D01*
X11146489Y5821680D01*
D02*
G37*
G36*
X10613089Y5618480D02*
X10595911D01*
X10580041Y5611906D01*
X10567894Y5599759D01*
X10561320Y5583889D01*
Y5566711D01*
X10567894Y5550841D01*
X10580041Y5538694D01*
X10595911Y5532120D01*
X10613089D01*
X10628959Y5538694D01*
X10641106Y5550841D01*
X10647680Y5566711D01*
Y5583889D01*
X10641106Y5599759D01*
X10628959Y5611906D01*
X10613089Y5618480D01*
D02*
G37*
G36*
X5317189Y5554980D02*
X5300011D01*
X5284141Y5548406D01*
X5271994Y5536259D01*
X5265420Y5520389D01*
Y5503211D01*
X5271994Y5487341D01*
X5284141Y5475194D01*
X5300011Y5468620D01*
X5317189D01*
X5333059Y5475194D01*
X5345206Y5487341D01*
X5351780Y5503211D01*
Y5520389D01*
X5345206Y5536259D01*
X5333059Y5548406D01*
X5317189Y5554980D01*
D02*
G37*
G36*
X6129989Y5453380D02*
X6112811D01*
X6096941Y5446806D01*
X6084794Y5434659D01*
X6078220Y5418789D01*
Y5401611D01*
X6084794Y5385741D01*
X6096941Y5373594D01*
X6112811Y5367020D01*
X6129989D01*
X6145859Y5373594D01*
X6158006Y5385741D01*
X6164580Y5401611D01*
Y5418789D01*
X6158006Y5434659D01*
X6145859Y5446806D01*
X6129989Y5453380D01*
D02*
G37*
G36*
X7730189Y5034280D02*
X7713011D01*
X7697141Y5027706D01*
X7684994Y5015559D01*
X7678420Y4999689D01*
Y4982511D01*
X7684994Y4966641D01*
X7697141Y4954494D01*
X7713011Y4947920D01*
X7730189D01*
X7746059Y4954494D01*
X7758206Y4966641D01*
X7764780Y4982511D01*
Y4999689D01*
X7758206Y5015559D01*
X7746059Y5027706D01*
X7730189Y5034280D01*
D02*
G37*
G36*
X9216089Y5021580D02*
X9198911D01*
X9183041Y5015006D01*
X9170894Y5002859D01*
X9164320Y4986989D01*
Y4969811D01*
X9170894Y4953941D01*
X9183041Y4941794D01*
X9198911Y4935220D01*
X9216089D01*
X9231959Y4941794D01*
X9244106Y4953941D01*
X9250680Y4969811D01*
Y4986989D01*
X9244106Y5002859D01*
X9231959Y5015006D01*
X9216089Y5021580D01*
D02*
G37*
G36*
X7301271Y4887866D02*
Y4853590D01*
X7335547D01*
X7329484Y4868227D01*
X7315908Y4881803D01*
X7301271Y4887866D01*
D02*
G37*
G36*
X7275871D02*
X7261234Y4881803D01*
X7247658Y4868227D01*
X7241595Y4853590D01*
X7275871D01*
Y4887866D01*
D02*
G37*
G36*
X7335547Y4828190D02*
X7301271D01*
Y4793915D01*
X7315908Y4799978D01*
X7329484Y4813553D01*
X7335547Y4828190D01*
D02*
G37*
G36*
X7275871D02*
X7241595D01*
X7247658Y4813553D01*
X7261234Y4799978D01*
X7275871Y4793915D01*
Y4828190D01*
D02*
G37*
G36*
X7920689Y4602480D02*
X7903511D01*
X7887641Y4595906D01*
X7875494Y4583759D01*
X7868920Y4567889D01*
Y4550711D01*
X7875494Y4534841D01*
X7887641Y4522694D01*
X7903511Y4516120D01*
X7920689D01*
X7936559Y4522694D01*
X7948706Y4534841D01*
X7955280Y4550711D01*
Y4567889D01*
X7948706Y4583759D01*
X7936559Y4595906D01*
X7920689Y4602480D01*
D02*
G37*
G36*
X6447489Y4589780D02*
X6430311D01*
X6414441Y4583206D01*
X6402294Y4571059D01*
X6395720Y4555189D01*
Y4538011D01*
X6402294Y4522141D01*
X6414441Y4509994D01*
X6430311Y4503420D01*
X6447489D01*
X6463359Y4509994D01*
X6475506Y4522141D01*
X6482080Y4538011D01*
Y4555189D01*
X6475506Y4571059D01*
X6463359Y4583206D01*
X6447489Y4589780D01*
D02*
G37*
G36*
X9419289Y4577080D02*
X9402111D01*
X9386241Y4570506D01*
X9374094Y4558359D01*
X9367520Y4542489D01*
Y4525311D01*
X9374094Y4509441D01*
X9386241Y4497294D01*
X9402111Y4490720D01*
X9419289D01*
X9435159Y4497294D01*
X9447306Y4509441D01*
X9453880Y4525311D01*
Y4542489D01*
X9447306Y4558359D01*
X9435159Y4570506D01*
X9419289Y4577080D01*
D02*
G37*
G36*
X11048788Y5006340D02*
X10998412D01*
X10948657Y4998459D01*
X10900747Y4982893D01*
X10855862Y4960023D01*
X10815108Y4930413D01*
X10779487Y4894792D01*
X10749877Y4854038D01*
X10727007Y4809153D01*
X10711441Y4761243D01*
X10703560Y4711488D01*
Y4661112D01*
X10711441Y4611357D01*
X10727007Y4563447D01*
X10749877Y4518562D01*
X10779487Y4477808D01*
X10815108Y4442187D01*
X10855862Y4412577D01*
X10900747Y4389707D01*
X10948657Y4374141D01*
X10998412Y4366260D01*
X11048788D01*
X11098543Y4374141D01*
X11146453Y4389707D01*
X11191338Y4412577D01*
X11232092Y4442187D01*
X11267713Y4477808D01*
X11297323Y4518562D01*
X11320193Y4563447D01*
X11335759Y4611357D01*
X11343640Y4661112D01*
Y4711488D01*
X11335759Y4761243D01*
X11320193Y4809153D01*
X11297323Y4854038D01*
X11267713Y4894792D01*
X11232092Y4930413D01*
X11191338Y4960023D01*
X11146453Y4982893D01*
X11098543Y4998459D01*
X11048788Y5006340D01*
D02*
G37*
%LPD*%
G36*
X9458161Y7575727D02*
X9449744Y7555407D01*
X9423995D01*
X9408007Y7571395D01*
Y7575952D01*
X9406785Y7582096D01*
X9405671Y7588274D01*
X9405504Y7588533D01*
X9405444Y7588836D01*
X9401961Y7594049D01*
X9398571Y7599326D01*
X9386323Y7612023D01*
X9386070Y7612199D01*
X9385898Y7612455D01*
X8359569Y8638785D01*
X8366354Y8660736D01*
X8372076Y8661812D01*
X9458161Y7575727D01*
D02*
G37*
D48*
X8376822Y8704678D02*
X9537700Y7543800D01*
X7023100Y8978900D02*
X7302500Y8699500D01*
X9362092Y7588649D02*
X9374340Y7575952D01*
Y7557449D02*
Y7575952D01*
X9766300Y7162800D02*
Y7226300D01*
X9410050Y7521740D02*
X9470860D01*
X9766300Y7226300D01*
X9374340Y7557449D02*
X9410050Y7521740D01*
X8291783Y8658958D02*
X9362092Y7588649D01*
X7343042Y8658958D02*
X8291783D01*
X7302500Y8699500D02*
X7343042Y8658958D01*
X7805322Y8704678D02*
X8376822D01*
X7531100Y8978900D02*
X7805322Y8704678D01*
D49*
X5080000Y8877300D02*
D03*
X11023600Y4686300D02*
D03*
D50*
X7277100Y8978900D02*
D03*
X7531100D02*
D03*
X8039100D02*
D03*
X7785100D02*
D03*
D51*
X7378700Y6955600D02*
D03*
D52*
X7023100Y8978900D02*
D03*
D53*
X8432800Y9105900D02*
D03*
X9601200Y9131300D02*
D03*
D54*
X7378700Y6455600D02*
D03*
D55*
X5981700Y7861300D02*
D03*
X6223000Y8115300D02*
D03*
X6489700Y8229600D02*
D03*
Y8102600D02*
D03*
X6392714Y7592249D02*
D03*
X5360019Y7574145D02*
D03*
X5562600Y7747000D02*
D03*
X5524500Y7988300D02*
D03*
X8788400Y7264400D02*
D03*
X8115300Y7543800D02*
D03*
X9537700D02*
D03*
X10617200Y8331200D02*
D03*
X9753600Y6096000D02*
D03*
X9787959Y5832498D02*
D03*
X7288571Y4840890D02*
D03*
X9543252Y6348739D02*
D03*
X9543094Y8750414D02*
D03*
X8775700Y6515100D02*
D03*
X8686800Y7277100D02*
D03*
X9461500Y7264400D02*
D03*
X9296400Y7874000D02*
D03*
X8305800Y8128000D02*
D03*
X7988300Y8089900D02*
D03*
X6388100Y8610600D02*
D03*
X7898964Y8592549D02*
D03*
X6146800Y8610600D02*
D03*
X5918200Y8597900D02*
D03*
X5651500D02*
D03*
X5473700Y8534400D02*
D03*
X5613400Y8521700D02*
D03*
X9766300Y7162800D02*
D03*
X6121400Y5410200D02*
D03*
X7721600Y4991100D02*
D03*
X9207500Y4978400D02*
D03*
X10604500Y5575300D02*
D03*
Y6959600D02*
D03*
X5308600Y5511800D02*
D03*
X5499100Y8280400D02*
D03*
X9410700Y4533900D02*
D03*
X7912100Y4559300D02*
D03*
X10998200Y8534400D02*
D03*
X6438900Y4546600D02*
D03*
X11137900Y5778500D02*
D03*
X11112500Y7175500D02*
D03*
X4752271Y7916527D02*
D03*
%TF.MD5,8abe0ade5682cec731d38ff792d37400*%
M02*
