M48
;Layer_Color=9474304
;FILE_FORMAT=2:5
INCH
;TYPE=PLATED
T01F00S00C0.01181
T02F00S00C0.13386
%
T01
X0198000Y0220000
X0196500Y0248500
X0198000Y0264000
X0223000Y0263000
X0229500
X0236500Y0253000
X0229500Y0245500
X0223000
X0217500Y0280000
X0235500
X0227500Y0300500
X0203500Y0297000
X0258500
X0261000Y0267500
X0253000Y0264000
X0242000Y0220000
X0240000Y0318000
X0248000Y0321000
X0247500Y0341000
X0258500
X0221000Y0321000
X0203500Y0319000
T02
X0256500Y0228000
X0198000Y0333500
M30
