G04*
G04 #@! TF.GenerationSoftware,Altium Limited,Altium Designer,25.8.1 (18)*
G04*
G04 Layer_Color=65535*
%FSLAX25Y25*%
%MOIN*%
G70*
G04*
G04 #@! TF.SameCoordinates,D80F59B6-B0F6-4173-9802-241DF097A218*
G04*
G04*
G04 #@! TF.FilePolarity,Positive*
G04*
G01*
G75*
%ADD10C,0.00984*%
%ADD11C,0.00787*%
%ADD12C,0.01000*%
D10*
X235268Y339587D02*
G03*
X235268Y339587I-492J0D01*
G01*
X219492Y284974D02*
G03*
X219492Y284974I-492J0D01*
G01*
D11*
X238319Y338405D02*
X242256D01*
Y335256D02*
Y338405D01*
X238319Y326594D02*
X242256D01*
Y329744D01*
X216845Y298829D02*
Y304176D01*
X236156D01*
Y298829D02*
Y304176D01*
X216845Y298829D02*
X236156D01*
D12*
X211000Y323999D02*
X210001Y324999D01*
X208001D01*
X207002Y323999D01*
Y320001D01*
X208001Y319001D01*
X210001D01*
X211000Y320001D01*
X216998Y324999D02*
X214999Y323999D01*
X213000Y322000D01*
Y320001D01*
X213999Y319001D01*
X215999D01*
X216998Y320001D01*
Y321000D01*
X215999Y322000D01*
X213000D01*
X211000Y343999D02*
X210001Y344999D01*
X208001D01*
X207002Y343999D01*
Y340001D01*
X208001Y339001D01*
X210001D01*
X211000Y340001D01*
X213000Y343999D02*
X213999Y344999D01*
X215999D01*
X216998Y343999D01*
Y343000D01*
X215999Y342000D01*
X214999D01*
X215999D01*
X216998Y341000D01*
Y340001D01*
X215999Y339001D01*
X213999D01*
X213000Y340001D01*
X192500Y281999D02*
X191501Y282999D01*
X189501D01*
X188502Y281999D01*
Y278001D01*
X189501Y277001D01*
X191501D01*
X192500Y278001D01*
X197499Y277001D02*
Y282999D01*
X194500Y280000D01*
X198498D01*
X241002Y253501D02*
Y259499D01*
X244001D01*
X245000Y258499D01*
Y256500D01*
X244001Y255500D01*
X241002D01*
X243001D02*
X245000Y253501D01*
X250998Y259499D02*
X247000D01*
Y256500D01*
X248999Y257500D01*
X249999D01*
X250998Y256500D01*
Y254501D01*
X249999Y253501D01*
X247999D01*
X247000Y254501D01*
X249502Y335499D02*
Y330501D01*
X250501Y329501D01*
X252501D01*
X253500Y330501D01*
Y335499D01*
X259498Y329501D02*
X255500D01*
X259498Y333500D01*
Y334499D01*
X258499Y335499D01*
X256499D01*
X255500Y334499D01*
X240501Y303999D02*
Y299001D01*
X241501Y298001D01*
X243500D01*
X244500Y299001D01*
Y303999D01*
X246499Y298001D02*
X248499D01*
X247499D01*
Y303999D01*
X246499Y302999D01*
X197500Y309499D02*
X196500Y310499D01*
X194501D01*
X193501Y309499D01*
Y305501D01*
X194501Y304501D01*
X196500D01*
X197500Y305501D01*
X199499Y304501D02*
X201499D01*
X200499D01*
Y310499D01*
X199499Y309499D01*
X202002Y254001D02*
Y259999D01*
X205001D01*
X206000Y258999D01*
Y257000D01*
X205001Y256000D01*
X202002D01*
X204001D02*
X206000Y254001D01*
X211998Y259999D02*
X209999Y258999D01*
X208000Y257000D01*
Y255001D01*
X208999Y254001D01*
X210999D01*
X211998Y255001D01*
Y256000D01*
X210999Y257000D01*
X208000D01*
X197002Y234107D02*
Y240105D01*
X200001D01*
X201000Y239106D01*
Y237106D01*
X200001Y236107D01*
X197002D01*
X199001D02*
X201000Y234107D01*
X205999D02*
Y240105D01*
X203000Y237106D01*
X206998D01*
X236002Y234151D02*
Y240149D01*
X239001D01*
X240000Y239149D01*
Y237150D01*
X239001Y236150D01*
X236002D01*
X238001D02*
X240000Y234151D01*
X242000Y239149D02*
X242999Y240149D01*
X244999D01*
X245998Y239149D01*
Y238149D01*
X244999Y237150D01*
X243999D01*
X244999D01*
X245998Y236150D01*
Y235150D01*
X244999Y234151D01*
X242999D01*
X242000Y235150D01*
X215002Y222001D02*
Y227999D01*
X218001D01*
X219000Y226999D01*
Y225000D01*
X218001Y224000D01*
X215002D01*
X217001D02*
X219000Y222001D01*
X224998D02*
X221000D01*
X224998Y226000D01*
Y226999D01*
X223999Y227999D01*
X221999D01*
X221000Y226999D01*
X258500Y281999D02*
X257501Y282999D01*
X255501D01*
X254502Y281999D01*
Y278001D01*
X255501Y277001D01*
X257501D01*
X258500Y278001D01*
X264498Y282999D02*
X260500D01*
Y280000D01*
X262499Y281000D01*
X263499D01*
X264498Y280000D01*
Y278001D01*
X263499Y277001D01*
X261499D01*
X260500Y278001D01*
X225000Y257499D02*
X224001Y258499D01*
X222001D01*
X221002Y257499D01*
Y253501D01*
X222001Y252501D01*
X224001D01*
X225000Y253501D01*
X230998Y252501D02*
X227000D01*
X230998Y256500D01*
Y257499D01*
X229999Y258499D01*
X227999D01*
X227000Y257499D01*
M02*
