G04*
G04 #@! TF.GenerationSoftware,Altium Limited,Altium Designer,25.8.1 (18)*
G04*
G04 Layer_Color=16711935*
%FSLAX25Y25*%
%MOIN*%
G70*
G04*
G04 #@! TF.SameCoordinates,D80F59B6-B0F6-4173-9802-241DF097A218*
G04*
G04*
G04 #@! TF.FilePolarity,Negative*
G04*
G01*
G75*
%ADD23C,0.18300*%
%ADD24C,0.02572*%
%ADD25C,0.02572*%
%ADD30R,0.03937X0.10630*%
%ADD31R,0.07087X0.14961*%
D23*
X256500Y228000D02*
D03*
X198000Y333500D02*
D03*
D24*
X221000Y321000D02*
D03*
X235500Y280000D02*
D03*
X217500D02*
D03*
D25*
X258500Y341000D02*
D03*
X247500D02*
D03*
X258500Y297000D02*
D03*
X253000Y264000D02*
D03*
X236500Y253000D02*
D03*
X242000Y220000D02*
D03*
X203500Y319000D02*
D03*
Y297000D02*
D03*
X198000Y264000D02*
D03*
Y220000D02*
D03*
X248000Y321000D02*
D03*
X261000Y267500D02*
D03*
X196500Y248500D02*
D03*
X240000Y318000D02*
D03*
X229500Y263000D02*
D03*
Y245500D02*
D03*
X223000Y263000D02*
D03*
Y245500D02*
D03*
X227500Y300500D02*
D03*
D30*
X247811Y307496D02*
D03*
X239937D02*
D03*
X232063D02*
D03*
X224189D02*
D03*
X214500Y254000D02*
D03*
X206626D02*
D03*
X222374D02*
D03*
X230248D02*
D03*
D31*
X214937Y325016D02*
D03*
X257063D02*
D03*
X239500Y236480D02*
D03*
X197374D02*
D03*
M02*
