G04*
G04 #@! TF.GenerationSoftware,Altium Limited,Altium Designer,25.8.1 (18)*
G04*
G04 Layer_Color=8388736*
%FSLAX25Y25*%
%MOIN*%
G70*
G04*
G04 #@! TF.SameCoordinates,D80F59B6-B0F6-4173-9802-241DF097A218*
G04*
G04*
G04 #@! TF.FilePolarity,Negative*
G04*
G01*
G75*
%ADD13R,0.05136X0.05733*%
G04:AMPARAMS|DCode=15|XSize=97.21mil|YSize=24.49mil|CornerRadius=12.25mil|HoleSize=0mil|Usage=FLASHONLY|Rotation=90.000|XOffset=0mil|YOffset=0mil|HoleType=Round|Shape=RoundedRectangle|*
%AMROUNDEDRECTD15*
21,1,0.09721,0.00000,0,0,90.0*
21,1,0.07272,0.02449,0,0,90.0*
1,1,0.02449,0.00000,0.03636*
1,1,0.02449,0.00000,-0.03636*
1,1,0.02449,0.00000,-0.03636*
1,1,0.02449,0.00000,0.03636*
%
%ADD15ROUNDEDRECTD15*%
%ADD16R,0.05733X0.04940*%
%ADD18R,0.02449X0.09721*%
G04:AMPARAMS|DCode=20|XSize=31.62mil|YSize=47.37mil|CornerRadius=6.01mil|HoleSize=0mil|Usage=FLASHONLY|Rotation=90.000|XOffset=0mil|YOffset=0mil|HoleType=Round|Shape=RoundedRectangle|*
%AMROUNDEDRECTD20*
21,1,0.03162,0.03535,0,0,90.0*
21,1,0.01961,0.04737,0,0,90.0*
1,1,0.01202,0.01768,0.00980*
1,1,0.01202,0.01768,-0.00980*
1,1,0.01202,-0.01768,-0.00980*
1,1,0.01202,-0.01768,0.00980*
%
%ADD20ROUNDEDRECTD20*%
%ADD21R,0.06115X0.04737*%
%ADD22R,0.04737X0.06115*%
%ADD23C,0.18300*%
%ADD24C,0.02572*%
%ADD25C,0.02572*%
D13*
X221347Y328500D02*
D03*
X248653Y280000D02*
D03*
X221347Y336500D02*
D03*
X204347Y280000D02*
D03*
X227653Y336500D02*
D03*
Y328500D02*
D03*
X210653Y280000D02*
D03*
X223347Y270500D02*
D03*
X242347Y280000D02*
D03*
X229653Y270500D02*
D03*
D15*
X234000Y311005D02*
D03*
X219000D02*
D03*
X229000D02*
D03*
Y292000D02*
D03*
X224000D02*
D03*
Y311005D02*
D03*
X234000Y292000D02*
D03*
D16*
X209000Y303749D02*
D03*
Y310251D02*
D03*
D18*
X219000Y292000D02*
D03*
D20*
X244224Y332500D02*
D03*
X234776Y336240D02*
D03*
Y328760D02*
D03*
D21*
X212500Y232913D02*
D03*
X231000Y232957D02*
D03*
X221500Y232913D02*
D03*
X238500Y264957D02*
D03*
X231000Y240043D02*
D03*
X215000Y272043D02*
D03*
Y264957D02*
D03*
X221500Y240000D02*
D03*
X212500D02*
D03*
X238500Y272043D02*
D03*
D22*
X230043Y281000D02*
D03*
X222957D02*
D03*
D23*
X256500Y228000D02*
D03*
X198000Y333500D02*
D03*
D24*
X221000Y321000D02*
D03*
X235500Y280000D02*
D03*
X217500D02*
D03*
D25*
X258500Y341000D02*
D03*
X247500D02*
D03*
X258500Y297000D02*
D03*
X253000Y264000D02*
D03*
X236500Y253000D02*
D03*
X242000Y220000D02*
D03*
X203500Y319000D02*
D03*
Y297000D02*
D03*
X198000Y264000D02*
D03*
Y220000D02*
D03*
X248000Y321000D02*
D03*
X261000Y267500D02*
D03*
X196500Y248500D02*
D03*
X240000Y318000D02*
D03*
X229500Y263000D02*
D03*
Y245500D02*
D03*
X223000Y263000D02*
D03*
Y245500D02*
D03*
X227500Y300500D02*
D03*
M02*
